<?xml version="1.0" encoding="UTF-8"?><svg id="Layer_2" xmlns="http://www.w3.org/2000/svg" viewBox="0 0 1296 1728"><defs><style>.cls-1{letter-spacing:-.07em;}.cls-2{fill:#e6e6e6;}.cls-2,.cls-3,.cls-4,.cls-5,.cls-6,.cls-7{stroke-width:0px;}.cls-8{font-family:NimbusSanExt-Bla, 'Nimbus Sans Extd';font-size:49.97px;}.cls-9{letter-spacing:-.02em;}.cls-4{fill:#fff;}.cls-5{fill:#0c0c0c;}.cls-6{fill:#e2452a;}.cls-7{fill:#f2f2f2;}</style></defs><rect class="cls-4" width="1296" height="1728"/><rect class="cls-2" x="214.23" y="301.9" width="1081.77" height="312.5"/><rect class="cls-6" x="728.39" y="301.9" width="567.61" height="312.5"/><rect class="cls-6" y="707.75" width="1296" height="312.5"/><path class="cls-3" d="m656.84,404.3c-11.2,0-17.37-4.15-17.37-11.45,0-6.44,6.03-10.79,16.92-10.9,11.04,0,17.12,4.77,17.12,11.45s-6.18,10.89-16.66,10.89Zm-.51-17.89c-8.56,0-13.42,2.63-13.42,6.69,0,4.56,5.32,6.74,13.73,6.74s13.42-2.08,13.42-6.69c0-3.9-4.76-6.74-13.73-6.74Z"/><path class="cls-3" d="m656.84,430.31c-11.2,0-17.37-4.15-17.37-11.45,0-6.44,6.03-10.79,16.92-10.9,11.04,0,17.12,4.77,17.12,11.45s-6.18,10.89-16.66,10.89Zm-.51-17.89c-8.56,0-13.42,2.63-13.42,6.69,0,4.56,5.32,6.74,13.73,6.74s13.42-2.08,13.42-6.69c0-3.9-4.76-6.74-13.73-6.74Z"/><path class="cls-3" d="m656.84,456.32c-11.2,0-17.37-4.15-17.37-11.45,0-6.44,6.03-10.79,16.92-10.9,11.04,0,17.12,4.77,17.12,11.45s-6.18,10.89-16.66,10.89Zm-.51-17.89c-8.56,0-13.42,2.64-13.42,6.69,0,4.56,5.32,6.74,13.73,6.74s13.42-2.08,13.42-6.69c0-3.9-4.76-6.74-13.73-6.74Z"/><path class="cls-3" d="m656.84,482.33c-11.2,0-17.37-4.15-17.37-11.45,0-6.44,6.03-10.79,16.92-10.9,11.04,0,17.12,4.77,17.12,11.45s-6.18,10.89-16.66,10.89Zm-.51-17.89c-8.56,0-13.42,2.64-13.42,6.69,0,4.56,5.32,6.74,13.73,6.74s13.42-2.08,13.42-6.69c0-3.9-4.76-6.74-13.73-6.74Z"/><path class="cls-3" d="m656.84,508.33c-11.2,0-17.37-4.15-17.37-11.45,0-6.44,6.03-10.79,16.92-10.9,11.04,0,17.12,4.77,17.12,11.45s-6.18,10.89-16.66,10.89Zm-.51-17.89c-8.56,0-13.42,2.63-13.42,6.69,0,4.56,5.32,6.74,13.73,6.74s13.42-2.08,13.42-6.69c0-3.9-4.76-6.74-13.73-6.74Z"/><path class="cls-3" d="m656.84,534.34c-11.2,0-17.37-4.15-17.37-11.45,0-6.44,6.03-10.79,16.92-10.9,11.04,0,17.12,4.77,17.12,11.45s-6.18,10.89-16.66,10.89Zm-.51-17.89c-8.56,0-13.42,2.63-13.42,6.69,0,4.56,5.32,6.74,13.73,6.74s13.42-2.08,13.42-6.69c0-3.9-4.76-6.74-13.73-6.74Z"/><path class="cls-3" d="m360.67,560.65c-1.38,0-2.5-1.12-2.5-2.5,0-6.31-21.6-10.88-37.37-14.22-22.18-4.7-41.34-8.75-41.34-19.11s19.16-14.42,41.34-19.11c15.77-3.34,37.37-7.91,37.37-14.22s-21.6-10.88-37.37-14.22c-22.18-4.7-41.34-8.75-41.34-19.11s19.16-14.42,41.34-19.11c15.77-3.34,37.37-7.91,37.37-14.22s-21.6-10.88-37.37-14.22c-22.18-4.7-41.34-8.75-41.34-19.11s19.16-14.42,41.34-19.11c15.77-3.34,37.37-7.91,37.37-14.22,0-1.38,1.12-2.5,2.5-2.5s2.5,1.12,2.5,2.5c0,10.36-19.16,14.42-41.34,19.11-15.77,3.34-37.37,7.91-37.37,14.22s21.6,10.88,37.37,14.22c22.18,4.7,41.34,8.75,41.34,19.11s-19.16,14.42-41.34,19.11c-15.77,3.34-37.37,7.91-37.37,14.22s21.6,10.88,37.38,14.22c22.18,4.7,41.34,8.75,41.34,19.11s-19.16,14.42-41.34,19.11c-15.77,3.34-37.37,7.91-37.37,14.22s21.6,10.88,37.38,14.22c22.18,4.7,41.34,8.75,41.34,19.11,0,1.38-1.12,2.5-2.5,2.5Z"/><path class="cls-3" d="m436.79,560.65c-1.38,0-2.5-1.12-2.5-2.5,0-6.31-21.6-10.88-37.37-14.22-22.18-4.7-41.34-8.75-41.34-19.11s19.16-14.42,41.34-19.11c15.77-3.34,37.37-7.91,37.37-14.22s-21.6-10.88-37.37-14.22c-22.18-4.7-41.34-8.75-41.34-19.11s19.16-14.42,41.34-19.11c15.77-3.34,37.37-7.91,37.37-14.22s-21.6-10.88-37.37-14.22c-22.18-4.7-41.34-8.75-41.34-19.11s19.16-14.42,41.34-19.11c15.77-3.34,37.37-7.91,37.37-14.22,0-1.38,1.12-2.5,2.5-2.5s2.5,1.12,2.5,2.5c0,10.36-19.16,14.42-41.34,19.11-15.77,3.34-37.37,7.91-37.37,14.22s21.6,10.88,37.37,14.22c22.18,4.7,41.34,8.75,41.34,19.11s-19.16,14.42-41.34,19.11c-15.77,3.34-37.37,7.91-37.37,14.22s21.6,10.88,37.38,14.22c22.18,4.7,41.34,8.75,41.34,19.11s-19.16,14.42-41.34,19.11c-15.77,3.34-37.37,7.91-37.37,14.22s21.6,10.88,37.38,14.22c22.18,4.7,41.34,8.75,41.34,19.11,0,1.38-1.12,2.5-2.5,2.5Z"/><path class="cls-3" d="m512.91,560.65c-1.38,0-2.5-1.12-2.5-2.5,0-6.31-21.6-10.88-37.37-14.22-22.18-4.7-41.34-8.75-41.34-19.11s19.16-14.42,41.34-19.11c15.77-3.34,37.37-7.91,37.37-14.22s-21.6-10.88-37.37-14.22c-22.18-4.7-41.34-8.75-41.34-19.11s19.16-14.42,41.34-19.11c15.77-3.34,37.37-7.91,37.37-14.22s-21.6-10.88-37.37-14.22c-22.18-4.7-41.34-8.75-41.34-19.11s19.16-14.42,41.34-19.11c15.77-3.34,37.37-7.91,37.37-14.22,0-1.38,1.12-2.5,2.5-2.5s2.5,1.12,2.5,2.5c0,10.36-19.16,14.42-41.34,19.11-15.77,3.34-37.37,7.91-37.37,14.22s21.6,10.88,37.37,14.22c22.18,4.7,41.34,8.75,41.34,19.11s-19.16,14.42-41.34,19.11c-15.77,3.34-37.37,7.91-37.37,14.22s21.6,10.88,37.38,14.22c22.18,4.7,41.34,8.75,41.34,19.11s-19.16,14.42-41.34,19.11c-15.77,3.34-37.37,7.91-37.37,14.22s21.6,10.88,37.38,14.22c22.18,4.7,41.34,8.75,41.34,19.11,0,1.38-1.12,2.5-2.5,2.5Z"/><path class="cls-3" d="m589.02,560.65c-1.38,0-2.5-1.12-2.5-2.5,0-6.31-21.6-10.88-37.37-14.22-22.18-4.7-41.34-8.75-41.34-19.11s19.16-14.42,41.34-19.11c15.77-3.34,37.37-7.91,37.37-14.22s-21.6-10.88-37.37-14.22c-22.18-4.7-41.34-8.75-41.34-19.11s19.16-14.42,41.34-19.11c15.77-3.34,37.37-7.91,37.37-14.22s-21.6-10.88-37.37-14.22c-22.18-4.7-41.34-8.75-41.34-19.11s19.16-14.42,41.34-19.11c15.77-3.34,37.37-7.91,37.37-14.22,0-1.38,1.12-2.5,2.5-2.5s2.5,1.12,2.5,2.5c0,10.36-19.16,14.42-41.34,19.11-15.77,3.34-37.37,7.91-37.37,14.22s21.6,10.88,37.37,14.22c22.18,4.7,41.34,8.75,41.34,19.11s-19.16,14.42-41.34,19.11c-15.77,3.34-37.37,7.91-37.37,14.22s21.6,10.88,37.38,14.22c22.18,4.7,41.34,8.75,41.34,19.11s-19.16,14.42-41.34,19.11c-15.77,3.34-37.37,7.91-37.37,14.22s21.6,10.88,37.38,14.22c22.18,4.7,41.34,8.75,41.34,19.11,0,1.38-1.12,2.5-2.5,2.5Z"/><rect class="cls-6" y="1113.6" width="1081.77" height="312.5"/><rect class="cls-5" x="137.3" y="845.31" width="733.77" height="53.86"/><path class="cls-5" d="m564.76,885.6l-1.81-1.22h0s-.47-.31-.47-.31h0s-.73-.49-.73-.49h-.01s-.46-.31-.46-.31h0s-.81-.55-.81-.55h0s-.43-.29-.43-.29h-.01s-.41-.27-.41-.27h0s-.41-.27-.41-.27h0s-.41-.27-.41-.27h0s-.81-.55-.81-.55h-.01s-.35-.23-.35-.23h0s-.47-.31-.47-.31h0s-.41-.27-.41-.27h0s-.32-.22-.32-.22h0s-.84-.57-.84-.57h-.01s-.87-.59-.87-.59h-.01s-.32-.21-.32-.21h0s-.49-.33-.49-.33h0s-.75-.51-.75-.51h-.01s-.47-.31-.47-.31h0s-.35-.23-.35-.23h0s-.47-.31-.47-.31h0s-.41-.27-.41-.27h0s-.78-.53-.78-.53h-.02s-1.25-.84-1.25-.84h-.01s-.32-.21-.32-.21h0s-.9-.61-.9-.61h-.01s-.35-.23-.35-.23h0s-.81-.55-.81-.55h0s-.41-.27-.41-.27h-.02s-.82-.54-.82-.54h0s-.79-.53-.79-.53h0s-.87-.59-.87-.59h-.02s-.81-.54-.81-.54h0s-.84-.57-.84-.57h0s-.41-.27-.41-.27h0s-.41-.27-.41-.27h-.02s-.82-.54-.82-.54h0s-1.19-.8-1.19-.8h-.01s-.35-.23-.35-.23h-.01s-.82-.55-.82-.55h-.01s-.9-.6-.9-.6h0s-.81-.55-.81-.55h-.02s-.41-.26-.41-.26l-.11.06c-6.43-3.41-17.39-12.08-25.19-11.4,0,0-71.44,0-71.44,0-4.3,0-7.68,2.15-8.54,5.2-3.62-2.18-6.54-5.31-11.18-5.19,0,0-19.14,0-19.14,0-4.99,0-8.75,2.89-8.75,6.73v22.23l-9.34,5.54h-2.73c-.52-4.15,1.82-12.94-3.19-15.29-6.74-4.46-13.48-8.92-20.23-13.38-3.97-2.32-7.13-5.92-12.16-5.84,0,0-19.14,0-19.14,0-10.42.01-8.77,8.77-8.75,15.63-3.27-2.52-17.57-10.69-21.33-13.01-5.39-5.05-62.7-1.71-70.17-2.61-7.99-.79-20.06,8.87-26.61,12.25-2.67,1.59-5.37,4.94-5.37,8.28.79,3.7-1.55,16.66,1.69,19.61-3.86-2.28-6.95-5.74-11.86-5.64,0,0-34.15,0-34.15,0,.3-14.11,1.01-12.89-11.04-20.47-4.4-2.92-8.81-5.83-13.21-8.74-3.67-2.2-6.63-5.41-11.34-5.29-6.27,1.12-27.92-3.86-27.89,6.73,0,0,0,42.42,0,42.42-.17,3.84,4.08,5.8,6.91,7.72,5.37,3.55,10.73,7.11,16.1,10.65,4.12,2.38,7.39,6.17,12.57,6.11,0,0,88.88,0,88.88,0,4.99,0,8.75-2.89,8.75-6.73-.06-2.02.42-8.68-.6-10.42,4.83,3.52,18.3,11.36,23.62,14.54,2.51,1.49,6.98,2.61,10.4,2.61,6.97-.79,64.58,2.15,69.6-2.29,3.66-2.85,18.88-9.6,20.92-14.14,4.21,3.07,17.94,11.07,22.62,13.86,2.52,1.47,6.96,2.58,10.34,2.58,7.58-.82,52.53,2.27,58.5-2.56,0,0,13.42-7.98,13.42-7.98,4.43,2.93,8.85,5.86,13.28,8.78-.48,3.41,74.96,1.13,77.41,1.74,8.03.77,20.05-8.87,26.63-12.26,2.66-1.58,5.36-4.93,5.36-8.28-.51-6.03,2.27-19.34-4.8-22.75Z"/><path class="cls-5" d="m1230.95,831.58c.89-13.68-1.67-11.79-11.86-18.91-6.67-3.57-16.82-13.32-23.72-13.49-6.36.8-77.43-2.17-81.27,2.29,0,0-.09.05-.09.05,0,0-.4.23-.48.27l-9.6,5.7c-5.31-2.87-9.48-8.09-15.9-8.31,0,0-88.86,0-88.86,0-9.17.17-9.12,6.61-8.75,13.18-6.97-3.76-19.58-13.76-28.05-13.18-3.8,1.06-78.39-2.78-78.6,2.77-1.28-5.44-74.03-1.78-78.57-2.77-7.39-.55-16.21,6.29-22.18,9.61-6-3.19-10.74-9.17-17.87-9.61-3.78,1.51-98.11-3.84-96.73,3.7-5.1-5.75-21.34-3.21-28.06-3.7-11.13-.07-8.52,10.22-8.75,17.25h-18.25c-5.61-3.71-11.22-7.43-16.84-11.14-4.12-2.38-7.39-6.17-12.57-6.11-6.28,1.12-27.89-3.86-27.87,6.73,0,0,0,42.43,0,42.43.2,5.91,10.59,9.24,14.75,12.91,19.94,13.79,15.95,11.65,39.96,11.57,11.14.05,8.52-10.21,8.75-17.26h18.24c5.62,3.71,11.23,7.44,16.85,11.14,4.12,2.38,7.39,6.17,12.57,6.11,5.5-.85,23.93,2.62,27.01-3.7,2.76,1.86,5.22,3.81,8.92,3.7,3.84-1.51,98.08,3.86,96.74-3.7,5.11,5.76,21.35,3.22,28.08,3.7,7.11.01,9.52-4.84,8.75-10.36h28.65c6.39,3.37,11.47,9.76,19,10.36,5-.68,22.65,2.01,26.15-2.61,4.14,4.48,21.01,2.02,26.42,2.61,12.63.16,7.91-13.95,8.75-21.42l.1.06v.03l.41.25v.03l.41.25v.03l.41.25v.03l.41.25v.03l.41.25v.03l.41.25v.03l.41.25v.03l.41.25v.03l.41.25v.03c7.53,3.48,29.01,19.97,37.79,18.88,0,0,31.22,0,31.22,0,6.17.04,8.78-4.91,3.87-8.82-4.25-2.81-8.49-5.62-12.74-8.42,14.43,1.02,11.36-8.69,11.58-18.33,1.21.6,2.61.96,4.1,1.04.53,4.15-1.83,12.97,3.19,15.32,8.81,5.83,17.62,11.66,26.43,17.48,3.57,3.21,20.65,1.22,25.11,1.74,4.99,0,8.75-2.89,8.75-6.73v-27.78h3.59c-1.68,14.78-.32,13.15,11.04,20.76,4.26,2.83,8.53,5.65,12.8,8.47,3.67,2.2,6.63,5.41,11.34,5.29,6.9-.9,77.36,2.44,81.74-2.56,4.84-4.12,22.14-9.64,21.68-17.99-.92-3.59,1.92-13.68-2.34-16.03,1.47-1.19,2.34-2.83,2.34-4.68Z"/><path class="cls-5" d="m566.37,818.41c-6.19-4.1-12.38-8.2-18.58-12.29-4.57-2.56-8.16-6.91-13.82-6.93-27.03.72-29.02-5.54-27.89,24.6-.83-.46-36.77-21.9-37.58-22.31-6.2-3.91-27.92-1.79-35.03-2.29-3.55,0-6.48,1.47-7.87,3.7-2.77-1.86-5.23-3.83-8.94-3.71-3.88,1.53-98.06-3.89-96.76,3.73.28-7.21-98.68-2.45-103.24-3.72-10.37.12-8.77,8.43-8.75,15.35-2.74-2.47-17.62-10.48-20.91-12.74-5.2-5.03-62.84-1.73-70.17-2.61-7.89-.86-20.13,8.92-26.61,12.25-7.72,3.47-4.92,16.62-5.37,23.1.85,8.47,11.19,11.14,16.9,15.91,8.81,6.1,22.11,14.34,31.53,19.77,5.53,5.07,62.61,1.7,70.17,2.61,7.41.61,16.19-6.33,22.18-9.62,17.54,12.79,16.35,9.22,37.02,9.62,11.13.07,8.52-10.22,8.75-17.25,6.29-.52,46.36,1.44,51.41-1.59,6.14,4.06,12.28,8.13,18.43,12.18,4.42,2.5,7.9,6.66,13.4,6.66,3.75-1.51,98.14,3.85,96.74-3.7,5.1,5.75,21.35,3.22,28.08,3.7,4.99,0,8.75-2.89,8.75-6.73v-17.88c7.67,3.42,38.75,26.04,47.44,24.61,0,0,25.17,0,25.17,0,4.99,0,8.75-2.89,8.75-6.73-1.21-4.03,3.16-46.68-3.19-47.68Z"/><path class="cls-5" d="m977.31,887.59c.89-13.67-1.67-11.79-11.86-18.91-6.67-3.57-16.83-13.32-23.72-13.49-6.36.8-77.43-2.17-81.27,2.29,0,0-.09.05-.09.05,0,0-.4.23-.48.27l-11.81,7.01c-3.98-2.63-7.95-5.26-11.93-7.89.46-3.41-74.93-1.13-77.39-1.74-7.39-.57-16.22,6.31-22.2,9.62-6-3.19-10.74-9.17-17.87-9.62-5.52.84-23.93-2.61-27.02,3.7-2.76-1.86-5.22-3.81-8.92-3.69-7.1.49-27.77-1.59-33.97,2.29-.16.04-.35.23-.56.32,0,0-24.43,14.51-24.43,14.51-7.26-3.26-26.3-18.31-34.83-17.12-6.54,1.36-32.87-4.46-32.9,6.73,0,0,0,42.42,0,42.42-.13,4.21,4.75,6.11,7.73,8.27,7.29,4.83,14.59,9.65,21.89,14.47,3.56,3.23,20.65,1.21,25.11,1.74,4.99,0,8.75-2.9,8.75-6.73v-17.25c3.9,1.69,26.87,17.66,31.09,16.63,4.26.46,11.3-5.21,14.83-6.97,4.41,2.92,8.83,5.84,13.25,8.76,3.82,2.26,6.88,5.66,11.75,5.57,5.51-.84,23.93,2.61,27.01-3.7,5.1,5.75,21.35,3.21,28.07,3.7,10.3-.03,8.81-8.53,8.75-15.35,8.56,4.81,20.88,15.3,31.33,15.35,4.94-1.52,78.41,3.86,79.31-3.72,2.81,7.2,74.24,2.46,80.42,3.73,8.09.73,20.06-8.87,26.63-12.26,2.66-1.58,5.36-4.93,5.36-8.28-.77-3.57,1.81-13.69-2.34-16.03,1.47-1.19,2.34-2.83,2.34-4.68Z"/><path class="cls-7" d="m187.45,896.5v7.91c0,1.62-2.23,2.95-4.96,2.95h-88.88c-2.73,0-4.96-1.33-4.96-2.95v-42.42c0-1.62,2.23-2.95,4.96-2.95h19.14c2.73,0,4.96,1.33,4.96,2.95v31.56h64.78c2.73,0,4.96,1.33,4.96,2.95Z"/><path class="cls-7" d="m312.62,875.8v14.81c0,1.62-1.59,3.88-3.52,5.03l-16.22,9.64c-.11.07-.25.14-.38.22-2.02,1.05-5.52,1.86-8.08,1.86h-59.77c-2.73,0-6.53-.93-8.46-2.08l-16.22-9.64c-1.93-1.15-3.52-3.41-3.52-5.03v-14.81c0-1.62,1.59-3.88,3.52-5.03l16.22-9.64c.12-.07.25-.14.38-.22,2.02-1.05,5.52-1.87,8.08-1.87h59.77c2.73,0,6.53.93,8.46,2.08l16.22,9.64c1.93,1.15,3.52,3.41,3.52,5.03Zm-29.06,4.23l-12.08-7.18h-33.89l-3.12,1.87c-.13.08-.26.15-.38.22l-5.06,3.01-3.52,2.08v6.35l12.08,7.18h33.89l3.12-1.87c.13-.08.26-.15.38-.22l5.06-3.01,3.52-2.08v-6.35Z"/><path class="cls-7" d="m424.54,862v28.62c0,1.62-1.57,3.88-3.5,5.03l-16.23,9.65s-.02.01-.03.02c-1.93,1.13-5.72,2.06-8.43,2.06h-48.2c-2.71,0-6.5-.93-8.43-2.06-.01,0-.02-.01-.03-.02l-16.23-9.65c-1.93-1.15-3.5-3.41-3.5-5.03v-28.62c0-1.62,2.23-2.95,4.96-2.95h19.14c2.73,0,4.96,1.33,4.96,2.95v24.39l12.08,7.18h22.31l3.5-2.08,5.07-3.01,3.5-2.08v-24.39c0-1.62,2.23-2.95,4.96-2.95h19.14c2.73,0,4.96,1.33,4.96,2.95Z"/><path class="cls-7" d="m535.8,870.99c1.77,1.2,3.14,3.28,3.14,4.8v14.81c0,1.62-1.57,3.88-3.51,5.03l-16.23,9.65c-.12.07-.25.15-.38.22-2.02,1.05-5.52,1.87-8.08,1.87h-71.44c-2.73,0-4.96-1.33-4.96-2.95v-42.43c0-1.62,2.23-2.95,4.96-2.95h71.44c2.56,0,6.07.81,8.08,1.87.13.08.26.15.38.22l16.23,9.64c.12.07.25.15.36.23h0Zm-25.92,15.38v-6.35l-3.14-1.86c-.12-.08-.25-.16-.36-.23l-5.07-3.01c-.12-.07-.25-.14-.38-.22l-3.12-1.86h-34.4v20.7h34.4l3.5-2.08,5.07-3.01,3.51-2.08h0Z"/><path class="cls-7" d="m204.82,819.72v14.81c0,1.62-1.59,3.88-3.52,5.03l-16.22,9.64c-.11.07-.25.14-.38.22-2.02,1.05-5.52,1.86-8.08,1.86h-59.77c-2.73,0-6.53-.93-8.46-2.08l-16.22-9.64c-1.93-1.15-3.52-3.41-3.52-5.03v-14.81c0-1.62,1.59-3.88,3.52-5.03l16.22-9.64c.12-.07.25-.14.38-.22,2.02-1.05,5.52-1.87,8.08-1.87h59.77c2.73,0,6.53.93,8.46,2.08l16.22,9.64c1.93,1.15,3.52,3.41,3.52,5.03Zm-29.06,4.23l-12.08-7.18h-33.89l-3.12,1.87c-.13.08-.26.15-.38.22l-5.06,3.01-3.52,2.08v6.35l12.08,7.18h33.89l3.12-1.87c.13-.08.26-.15.38-.22l5.06-3.01,3.52-2.08v-6.35Z"/><path class="cls-7" d="m315.91,805.92v11.37c0,1.52-1.37,3.6-3.14,4.8-.12.08-.25.16-.36.23l-16.22,9.64c-.11.07-.25.14-.38.22-2.03,1.05-5.54,1.86-8.1,1.86h-46.93v14.3c0,1.62-2.23,2.95-4.96,2.95h-19.14c-2.73,0-4.96-1.33-4.96-2.95v-42.42c0-1.62,2.23-2.95,4.96-2.95h94.27c2.73,0,4.96,1.33,4.96,2.95Zm-38.02,12.46l2.7-1.59h-39.8v3.45h33.98l2.6-1.54c.12-.06.22-.12.31-.18.02,0,.05-.03.05-.04l.16-.1h0Z"/><path class="cls-7" d="m351.89,816.77v3.45h64.78c2.73,0,4.96,1.33,4.96,2.95v7.92c0,1.62-2.23,2.95-4.96,2.95h-64.78v3.45h64.78c2.73,0,4.96,1.33,4.96,2.95v7.92c0,1.62-2.23,2.95-4.96,2.95h-88.86c-2.73,0-4.96-1.33-4.96-2.95v-42.43c0-1.62,2.23-2.95,4.96-2.95h88.86c2.73,0,4.96,1.33,4.96,2.95v7.91c0,1.62-2.23,2.95-4.96,2.95h-64.78Z"/><path class="cls-7" d="m533.98,802.97c2.73,0,4.96,1.33,4.96,2.95v42.42c0,1.62-2.23,2.95-4.96,2.95h-25.17c-2.73,0-6.53-.93-8.46-2.08l-39.24-23.31c-.1-.06-.18-.11-.28-.16l-3.24-1.92v24.52c0,1.62-2.23,2.95-4.96,2.95h-19.14c-2.73,0-4.96-1.33-4.96-2.95v-42.42c0-1.62,2.23-2.95,4.96-2.95h25.19c2.56,0,6.07.81,8.1,1.87.13.08.26.15.38.22l39.22,23.31,3.5,2.08v-24.52c0-1.62,2.23-2.95,4.96-2.95h19.14Z"/><path class="cls-7" d="m682.75,858.98c2.73,0,4.96,1.33,4.96,2.95v42.42c0,1.62-2.23,2.95-4.96,2.95h-19.14c-2.73,0-4.96-1.33-4.96-2.95v-23.9l-3.22,1.92c-.1.05-.18.1-.28.16l-27.85,16.55h-.02c-1.94,1.15-5.06,1.15-6.99,0l-27.87-16.55c-.1-.06-.18-.11-.28-.16l-3.22-1.92v23.9c0,1.62-2.23,2.95-4.96,2.95h-19.14c-2.73,0-4.96-1.33-4.96-2.95v-42.42c0-1.62,2.23-2.95,4.96-2.95h24.15c2.56,0,6.07.81,8.08,1.87.13.08.26.15.38.22l22.86,13.58,3.51,2.08,3.5-2.08,22.86-13.58c.11-.07.25-.14.38-.22,2.02-1.05,5.52-1.87,8.08-1.87h24.13Z"/><path class="cls-7" d="m723.64,861.91v42.43c0,1.62-2.23,2.95-4.96,2.95h-19.14c-2.73,0-4.96-1.33-4.96-2.95v-42.43c0-1.62,2.23-2.95,4.96-2.95h19.14c2.73,0,4.96,1.33,4.96,2.95Z"/><path class="cls-7" d="m762.75,878.09l-3.14,1.86v6.35l12.08,7.18h58.5c2.73,0,4.96,1.33,4.96,2.95v7.92c0,1.62-2.23,2.95-4.96,2.95h-71.42c-2.73,0-6.53-.93-8.46-2.08l-16.25-9.65c-1.93-1.15-3.5-3.41-3.5-5.03v-14.81c0-1.52,1.37-3.6,3.14-4.8.12-.08.25-.16.36-.23l16.25-9.64c.12-.07.25-.14.38-.22,2.02-1.05,5.52-1.87,8.08-1.87h71.42c2.73,0,4.96,1.33,4.96,2.95v7.91c0,1.62-2.23,2.95-4.96,2.95h-58.5l-3.12,1.86c-.13.08-.26.15-.38.22l-5.07,3.01c-.12.07-.25.15-.36.23h0Z"/><path class="cls-7" d="m880.32,874.5s-.05.03-.05.04l-2.86,1.69h64.32c2.73,0,4.96,1.33,4.96,2.95v11.37c0,1.62-1.57,3.88-3.5,5.03l-16.23,9.65s-.02.01-.03.02c-1.93,1.13-5.72,2.06-8.43,2.06h-71.44c-2.73,0-4.96-1.33-4.96-2.95v-7.92c0-1.62,2.23-2.95,4.96-2.95h58.5l2.91-1.73,2.91-1.72h-64.32c-2.73,0-4.96-1.33-4.96-2.95v-11.37c0-1.52,1.37-3.6,3.14-4.8.13-.08.25-.16.36-.23l16.23-9.64c.11-.07.25-.14.38-.22,2.02-1.05,5.52-1.87,8.08-1.87h71.44c2.73,0,4.96,1.33,4.96,2.95v7.91c0,1.62-2.23,2.95-4.96,2.95h-58.5l-2.83,1.67s-.05.04-.08.05h0Z"/><path class="cls-7" d="m664.45,805.91v42.43c0,1.62-2.23,2.95-4.96,2.95h-19.14c-2.73,0-4.96-1.33-4.96-2.95v-14.31h-46.5v14.31c0,1.62-2.23,2.95-4.96,2.95h-19.12c-2.73,0-4.96-1.33-4.96-2.95v-42.43c0-1.62,2.23-2.95,4.96-2.95h19.12c2.73,0,4.96,1.33,4.96,2.95v14.3h46.5v-14.3c0-1.62,2.23-2.95,4.96-2.95h19.14c2.73,0,4.96,1.33,4.96,2.95Z"/><path class="cls-7" d="m700.37,816.77v3.45h64.78c2.73,0,4.96,1.33,4.96,2.95v7.92c0,1.62-2.23,2.95-4.96,2.95h-64.78v3.45h64.78c2.73,0,4.96,1.33,4.96,2.95v7.92c0,1.62-2.23,2.95-4.96,2.95h-88.86c-2.73,0-4.96-1.33-4.96-2.95v-42.43c0-1.62,2.23-2.95,4.96-2.95h88.86c2.73,0,4.96,1.33,4.96,2.95v7.91c0,1.62-2.23,2.95-4.96,2.95h-64.78Z"/><path class="cls-7" d="m881.6,806.35v41.99c0,1.62-2.23,2.95-4.96,2.95h-19.14c-2.73,0-4.96-1.33-4.96-2.95v-7.41h-46.48v7.41c0,1.62-2.23,2.95-4.96,2.95h-19.14c-2.73,0-4.96-1.33-4.96-2.95v-28.64c0-1.51,1.37-3.59,3.14-4.79.13-.09.25-.16.36-.23l16.23-9.64c.11-.08.25-.14.38-.22,2.02-1.06,5.52-1.87,8.08-1.87h70.7c3.15,0,5.7,1.52,5.7,3.38Zm-29.06,10.41h-34.4l-3.12,1.88c-.13.07-.26.15-.38.22l-8.58,5.1v3.18h46.48v-10.37Z"/><path class="cls-7" d="m1088.03,802.97c2.73,0,4.96,1.33,4.96,2.95v7.91c0,1.62-2.23,2.95-4.96,2.95h-29.9v31.57c0,1.62-2.23,2.95-4.96,2.95h-19.14c-2.73,0-4.96-1.33-4.96-2.95v-31.57h-29.9c-2.73,0-4.96-1.32-4.96-2.95v-7.91c0-1.62,2.23-2.95,4.96-2.95h88.86Z"/><path class="cls-7" d="m1133.95,818.49s-.05.03-.05.04l-2.86,1.69h64.32c2.73,0,4.96,1.33,4.96,2.95v11.37c0,1.62-1.57,3.88-3.5,5.03l-16.23,9.65s-.02.01-.03.02c-1.93,1.13-5.72,2.06-8.43,2.06h-71.44c-2.73,0-4.96-1.33-4.96-2.95v-7.92c0-1.62,2.23-2.95,4.96-2.95h58.5l2.91-1.73,2.91-1.72h-64.32c-2.73,0-4.96-1.33-4.96-2.95v-11.37c0-1.52,1.37-3.6,3.14-4.8.13-.08.25-.16.36-.23l16.23-9.64c.11-.07.25-.14.38-.22,2.02-1.05,5.52-1.87,8.08-1.87h71.44c2.73,0,4.96,1.33,4.96,2.95v7.91c0,1.62-2.23,2.95-4.96,2.95h-58.5l-2.83,1.67s-.05.04-.08.05h0Z"/><path class="cls-7" d="m993.36,849.37h0c-.08-.06-.16-.11-.26-.17l-25.54-15.17h18.05c2.73,0,4.96-1.33,4.96-2.95v-11.37c0-1.52-1.37-3.6-3.14-4.8-.12-.08-.25-.16-.36-.23l-16.6-9.86c-2.03-1.05-5.54-1.87-8.1-1.87h-71.44c-2.73,0-4.96,1.33-4.96,2.95v42.42c0,1.62,2.23,2.95,4.96,2.95h19.14c2.73,0,4.96-1.33,4.96-2.95v-31.56h11.39v17.26l25.54,15.17c1.93,1.15,5.74,2.08,8.46,2.08h31.22c2.6,0,3.32-.84,1.72-1.91Z"/><text class="cls-8" transform="translate(842.09 1205.67) rotate(90)"><tspan class="cls-9" x="0" y="0">D</tspan><tspan class="cls-1" x="46.62" y="0">A</tspan><tspan x="85.79" y="0">Y</tspan><tspan x="-6.47" y="59.96">ONE</tspan></text></svg>