<?xml version="1.0" encoding="UTF-8"?><svg id="Layer_2" xmlns="http://www.w3.org/2000/svg" viewBox="0 0 1296 1728"><defs><style>.cls-1,.cls-2{stroke-width:0px;}.cls-3{stroke-width:4.14px;}.cls-3,.cls-4{fill:none;stroke:#231f20;stroke-miterlimit:10;}.cls-2{fill:#fff;}.cls-4{stroke-linecap:round;stroke-width:12.33px;}</style></defs><rect class="cls-2" width="1296" height="1728"/><polygon class="cls-3" points="924.42 532.72 924.42 1186.71 648 1186.71 371.58 1186.71 371.58 532.72 924.42 532.72 924.42 532.72"/><line class="cls-4" x1="355.51" y1="580.65" x2="398.36" y2="580.65"/><line class="cls-4" x1="355.51" y1="617.86" x2="398.36" y2="617.86"/><line class="cls-4" x1="355.51" y1="655.06" x2="398.36" y2="655.06"/><line class="cls-4" x1="355.51" y1="692.27" x2="398.36" y2="692.27"/><line class="cls-4" x1="355.51" y1="729.48" x2="398.36" y2="729.48"/><line class="cls-4" x1="355.51" y1="766.69" x2="398.36" y2="766.69"/><line class="cls-4" x1="355.51" y1="803.9" x2="398.36" y2="803.9"/><line class="cls-4" x1="355.51" y1="841.11" x2="398.36" y2="841.11"/><line class="cls-4" x1="355.51" y1="878.32" x2="398.36" y2="878.32"/><line class="cls-4" x1="355.51" y1="915.53" x2="398.36" y2="915.53"/><line class="cls-4" x1="355.51" y1="952.74" x2="398.36" y2="952.74"/><line class="cls-4" x1="355.51" y1="989.95" x2="398.36" y2="989.95"/><line class="cls-4" x1="355.51" y1="1027.16" x2="398.36" y2="1027.16"/><line class="cls-4" x1="355.51" y1="1064.37" x2="398.36" y2="1064.37"/><line class="cls-4" x1="355.51" y1="1101.58" x2="398.36" y2="1101.58"/><line class="cls-4" x1="355.51" y1="1138.79" x2="398.36" y2="1138.79"/><path class="cls-1" d="m877,837.71c.95-.77,1.52-1.83,1.52-3.04.58-8.88-1.09-7.65-7.7-12.27-4.33-2.32-10.92-8.65-15.4-8.75-4.12.52-50.26-1.41-52.75,1.49,0,0-.06.03-.06.03,0,0-.26.15-.31.18l-6.23,3.7c-3.44-1.86-6.15-5.25-10.32-5.39,0,0-15.58,0-30.55,0,.3-9,.61-21.21-2.11-21.64-4.02-2.66-8.04-5.32-12.06-7.98-2.96-1.66-5.29-4.48-8.97-4.5-17.55.47-18.83-3.59-18.1,15.97-.54-.3-23.87-14.21-24.39-14.48-4.02-2.53-18.12-1.16-22.74-1.49-2.3,0-4.2.95-5.11,2.4-1.8-1.21-3.4-2.48-5.8-2.41-2.52.99-63.65-2.53-62.8,2.42.18-4.68-64.05-1.59-67-2.42-6.73.08-5.69,5.47-5.68,9.97-1.78-1.61-11.44-6.8-13.57-8.27-3.38-3.26-40.79-1.12-45.54-1.7-5.12-.56-13.07,5.79-17.27,7.95-5.01,2.25-3.2,10.79-3.49,14.99.55,5.5,7.26,7.23,10.97,10.33.38.26.76.53,1.16.8-5.49-.26-12.23-.36-12.22,4.41,0,0,0,27.54,0,27.54.04,1.24.77,2.3,1.84,3.25-1.08.68-1.75,1.7-1.74,3.2,0,0,0,27.53,0,27.53-.06,1.41.79,2.42,1.87,3.27-1.21.7-1.96,1.72-1.96,3.23v27.53c-.09,2.73,3.09,3.96,5.02,5.37,4.73,3.13,9.47,6.27,14.2,9.39,2.31,2.1,13.4.79,16.3,1.13,3.24,0,5.68-1.88,5.68-4.37v-11.2c2.53,1.1,17.44,11.46,20.18,10.79,2.77.3,7.34-3.38,9.62-4.53,2.87,1.9,5.73,3.79,8.6,5.69,2.48,1.47,4.47,3.68,7.63,3.61,3.57-.55,15.53,1.7,17.53-2.4,3.31,3.73,13.85,2.08,18.22,2.4,6.68-.02,5.72-5.54,5.68-9.97,5.56,3.12,13.55,9.93,20.33,9.97,3.21-.98,50.89,2.51,51.48-2.41,1.82,4.68,48.18,1.6,52.19,2.42,5.25.48,13.02-5.76,17.28-7.96,1.73-1.03,3.48-3.2,3.48-5.38-.5-2.32,1.18-8.88-1.52-10.4.95-.77,1.52-1.83,1.52-3.04.25-3.87.08-5.82-.75-7.18,10.76-.08,20.56-.27,21.26-.09,5.21.5,13.01-5.76,17.28-7.96,1.73-1.03,3.48-3.2,3.48-5.38-.33-3.91,1.47-12.55-3.12-14.77l-1.17-.79h0s-.3-.2-.3-.2h0s-.47-.32-.47-.32h0s-.3-.2-.3-.2h0s-.53-.36-.53-.36h0s-.28-.19-.28-.19h0s-.26-.18-.26-.18h0s-.26-.18-.26-.18h0s-.26-.18-.26-.18h0s-.53-.36-.53-.36h0s-.23-.15-.23-.15h0s-.3-.2-.3-.2h0s-.26-.18-.26-.18h0s-.21-.14-.21-.14h0s-.54-.37-.54-.37h0s-.56-.38-.56-.38h0s-.21-.14-.21-.14h0s-.32-.22-.32-.22h0s-.49-.33-.49-.33h0s-.3-.2-.3-.2h0s-.23-.15-.23-.15h0s-.3-.2-.3-.2h0s-.26-.18-.26-.18h0s-.51-.34-.51-.34h-.01s-.14-.09-.14-.09c2.41-.88,3.02-3.35.45-5.4-2.76-1.82-5.51-3.65-8.27-5.47,9.36.66,7.37-5.64,7.51-11.89.78.39,1.69.62,2.66.68.34,2.69-1.19,8.42,2.07,9.94,5.72,3.78,11.43,7.57,17.15,11.34,2.32,2.09,13.4.79,16.3,1.13,3.24,0,5.68-1.88,5.68-4.37v-18.03h2.33c-1.09,9.59-.21,8.53,7.17,13.47,2.77,1.83,5.54,3.67,8.31,5.5,2.38,1.43,4.3,3.51,7.36,3.44,4.48-.59,50.21,1.58,53.05-1.66,3.14-2.67,14.37-6.25,14.07-11.68-.6-2.33,1.25-8.88-1.52-10.4Z"/><path class="cls-2" d="m507.16,874.4v5.14c0,1.05-1.45,1.91-3.22,1.91h-57.69c-1.77,0-3.22-.86-3.22-1.91v-27.53c0-1.05,1.45-1.91,3.22-1.91h12.42c1.77,0,3.22.86,3.22,1.91v20.48h42.05c1.77,0,3.22.86,3.22,1.91Z"/><path class="cls-2" d="m588.41,860.96v9.61c0,1.05-1.03,2.52-2.29,3.26l-10.52,6.26c-.07.04-.16.09-.25.14-1.31.68-3.58,1.21-5.25,1.21h-38.79c-1.77,0-4.24-.61-5.49-1.35l-10.52-6.26c-1.25-.75-2.28-2.21-2.28-3.26v-9.61c0-1.05,1.03-2.52,2.28-3.26l10.52-6.26c.07-.04.16-.09.25-.14,1.31-.68,3.58-1.21,5.25-1.21h38.79c1.77,0,4.24.61,5.49,1.35l10.52,6.26c1.26.75,2.29,2.21,2.29,3.26Zm-18.86,2.75l-7.84-4.66h-21.99l-2.03,1.21c-.09.05-.17.1-.25.14l-3.28,1.96-2.28,1.35v4.12l7.84,4.66h21.99l2.03-1.21c.09-.05.17-.1.25-.14l3.28-1.96,2.29-1.35v-4.12Z"/><path class="cls-2" d="m661.04,852v18.57c0,1.05-1.02,2.52-2.27,3.26l-10.54,6.26s-.01,0-.02.01c-1.26.73-3.71,1.34-5.47,1.34h-31.28c-1.76,0-4.22-.61-5.47-1.34,0,0-.01,0-.02-.01l-10.54-6.26c-1.26-.75-2.27-2.21-2.27-3.26v-18.57c0-1.05,1.45-1.91,3.22-1.91h12.42c1.77,0,3.22.86,3.22,1.91v15.83l7.84,4.66h14.48l2.27-1.35,3.29-1.96,2.27-1.35v-15.83c0-1.05,1.45-1.91,3.22-1.91h12.42c1.77,0,3.22.86,3.22,1.91Z"/><path class="cls-2" d="m733.26,857.84c1.15.78,2.04,2.13,2.04,3.12v9.61c0,1.05-1.02,2.52-2.27,3.26l-10.54,6.26c-.07.04-.16.1-.25.14-1.31.68-3.58,1.21-5.25,1.21h-46.37c-1.77,0-3.22-.86-3.22-1.91v-27.54c0-1.05,1.45-1.91,3.22-1.91h46.37c1.66,0,3.94.53,5.25,1.21.09.05.17.1.25.14l10.54,6.26c.08.04.16.1.24.15h0Zm-16.82,9.98v-4.12l-2.04-1.2c-.08-.05-.16-.1-.24-.15l-3.29-1.96c-.08-.04-.16-.09-.25-.14l-2.03-1.21h-22.33v13.44h22.33l2.27-1.35,3.29-1.96,2.27-1.35h0Z"/><path class="cls-2" d="m518.44,792.86v9.61c0,1.05-1.03,2.52-2.29,3.26l-10.52,6.26c-.07.04-.16.09-.25.14-1.31.68-3.58,1.21-5.25,1.21h-38.79c-1.77,0-4.24-.61-5.49-1.35l-10.52-6.26c-1.25-.75-2.28-2.21-2.28-3.26v-9.61c0-1.05,1.03-2.52,2.28-3.26l10.52-6.26c.07-.04.16-.09.25-.14,1.31-.68,3.58-1.21,5.25-1.21h38.79c1.77,0,4.24.61,5.49,1.35l10.52,6.26c1.26.75,2.29,2.21,2.29,3.26Zm-18.86,2.75l-7.84-4.66h-21.99l-2.03,1.21c-.09.05-.17.1-.25.14l-3.28,1.96-2.28,1.35v4.12l7.84,4.66h21.99l2.03-1.21c.09-.05.17-.1.25-.14l3.28-1.96,2.29-1.35v-4.12Z"/><path class="cls-2" d="m590.54,783.9v7.38c0,.99-.89,2.34-2.04,3.12-.08.05-.16.1-.24.15l-10.52,6.26c-.07.04-.16.09-.25.14-1.32.68-3.59,1.21-5.26,1.21h-30.46v9.28c0,1.05-1.45,1.91-3.22,1.91h-12.42c-1.77,0-3.22-.86-3.22-1.91v-27.53c0-1.05,1.45-1.91,3.22-1.91h61.18c1.77,0,3.22.86,3.22,1.91Zm-24.68,8.09l1.75-1.03h-25.83v2.24h22.06l1.68-1c.08-.04.14-.08.2-.11.01,0,.03-.02.03-.03l.11-.06h0Z"/><path class="cls-2" d="m613.89,790.95v2.24h42.05c1.77,0,3.22.86,3.22,1.91v5.14c0,1.05-1.45,1.91-3.22,1.91h-42.05v2.24h42.05c1.77,0,3.22.86,3.22,1.91v5.14c0,1.05-1.45,1.91-3.22,1.91h-57.68c-1.77,0-3.22-.86-3.22-1.91v-27.54c0-1.05,1.45-1.91,3.22-1.91h57.68c1.77,0,3.22.86,3.22,1.91v5.14c0,1.05-1.45,1.91-3.22,1.91h-42.05Z"/><path class="cls-2" d="m732.08,781.99c1.77,0,3.22.86,3.22,1.91v27.53c0,1.05-1.45,1.91-3.22,1.91h-16.34c-1.77,0-4.24-.61-5.49-1.35l-25.47-15.13c-.06-.04-.12-.07-.18-.1l-2.1-1.25v15.92c0,1.05-1.45,1.91-3.22,1.91h-12.42c-1.77,0-3.22-.86-3.22-1.91v-27.53c0-1.05,1.45-1.91,3.22-1.91h16.35c1.66,0,3.94.53,5.26,1.21.09.05.17.1.25.14l25.46,15.13,2.27,1.35v-15.92c0-1.05,1.45-1.91,3.22-1.91h12.42Z"/><path class="cls-2" d="m522.72,884.12c1.77,0,3.22.86,3.22,1.91v27.53c0,1.05-1.45,1.91-3.22,1.91h-12.42c-1.77,0-3.22-.86-3.22-1.91v-15.51l-2.09,1.25c-.06.03-.12.06-.18.1l-18.08,10.74h-.01c-1.26.75-3.28.75-4.54,0l-18.09-10.74c-.06-.04-.12-.07-.18-.1l-2.09-1.25v15.51c0,1.05-1.45,1.91-3.22,1.91h-12.42c-1.77,0-3.22-.86-3.22-1.91v-27.53c0-1.05,1.45-1.91,3.22-1.91h15.67c1.66,0,3.94.53,5.25,1.21.09.05.17.1.25.14l14.84,8.81,2.27,1.35,2.27-1.35,14.84-8.81c.07-.04.16-.09.25-.14,1.31-.68,3.58-1.21,5.25-1.21h15.66Z"/><path class="cls-2" d="m549.26,886.03v27.54c0,1.05-1.45,1.91-3.22,1.91h-12.42c-1.77,0-3.22-.86-3.22-1.91v-27.54c0-1.05,1.45-1.91,3.22-1.91h12.42c1.77,0,3.22.86,3.22,1.91Z"/><path class="cls-2" d="m574.64,896.53l-2.04,1.2v4.12l7.84,4.66h37.97c1.77,0,3.22.86,3.22,1.91v5.14c0,1.05-1.45,1.91-3.22,1.91h-46.36c-1.77,0-4.24-.61-5.49-1.35l-10.55-6.26c-1.26-.75-2.27-2.21-2.27-3.26v-9.61c0-.99.89-2.34,2.04-3.12.08-.05.16-.1.24-.15l10.55-6.26c.08-.04.16-.09.25-.14,1.31-.68,3.58-1.21,5.25-1.21h46.36c1.77,0,3.22.86,3.22,1.91v5.14c0,1.05-1.45,1.91-3.22,1.91h-37.97l-2.03,1.21c-.09.05-.17.1-.25.14l-3.29,1.96c-.08.04-.16.1-.24.15h0Z"/><path class="cls-2" d="m650.95,894.2s-.03.02-.03.03l-1.86,1.1h41.74c1.77,0,3.22.86,3.22,1.91v7.38c0,1.05-1.02,2.52-2.27,3.26l-10.54,6.26s-.01,0-.02.01c-1.26.73-3.71,1.34-5.47,1.34h-46.37c-1.77,0-3.22-.86-3.22-1.91v-5.14c0-1.05,1.45-1.91,3.22-1.91h37.97l1.89-1.12,1.89-1.12h-41.74c-1.77,0-3.22-.86-3.22-1.91v-7.38c0-.99.89-2.34,2.04-3.12.09-.05.16-.1.24-.15l10.54-6.26c.07-.04.16-.09.25-.14,1.31-.68,3.58-1.21,5.25-1.21h46.37c1.77,0,3.22.86,3.22,1.91v5.14c0,1.05-1.45,1.91-3.22,1.91h-37.97l-1.83,1.08s-.03.03-.05.03h0Z"/><path class="cls-2" d="m510.84,818.01v27.54c0,1.05-1.45,1.91-3.22,1.91h-12.42c-1.77,0-3.22-.86-3.22-1.91v-9.29h-30.18v9.29c0,1.05-1.45,1.91-3.22,1.91h-12.41c-1.77,0-3.22-.86-3.22-1.91v-27.54c0-1.05,1.45-1.91,3.22-1.91h12.41c1.77,0,3.22.86,3.22,1.91v9.28h30.18v-9.28c0-1.05,1.45-1.91,3.22-1.91h12.42c1.77,0,3.22.86,3.22,1.91Z"/><path class="cls-2" d="m534.15,825.06v2.24h42.05c1.77,0,3.22.86,3.22,1.91v5.14c0,1.05-1.45,1.91-3.22,1.91h-42.05v2.24h42.05c1.77,0,3.22.86,3.22,1.91v5.14c0,1.05-1.45,1.91-3.22,1.91h-57.68c-1.77,0-3.22-.86-3.22-1.91v-27.54c0-1.05,1.45-1.91,3.22-1.91h57.68c1.77,0,3.22.86,3.22,1.91v5.14c0,1.05-1.45,1.91-3.22,1.91h-42.05Z"/><path class="cls-2" d="m651.77,818.3v27.25c0,1.05-1.45,1.91-3.22,1.91h-12.42c-1.77,0-3.22-.86-3.22-1.91v-4.81h-30.17v4.81c0,1.05-1.45,1.91-3.22,1.91h-12.42c-1.77,0-3.22-.86-3.22-1.91v-18.59c0-.98.89-2.33,2.04-3.11.09-.06.16-.1.24-.15l10.54-6.26c.07-.05.16-.09.25-.14,1.31-.69,3.58-1.21,5.25-1.21h45.89c2.04,0,3.7.98,3.7,2.2Zm-18.86,6.76h-22.33l-2.03,1.22c-.09.04-.17.1-.25.14l-5.57,3.31v2.06h30.17v-6.73Z"/><path class="cls-2" d="m785.76,816.11c1.77,0,3.22.86,3.22,1.91v5.14c0,1.05-1.45,1.91-3.22,1.91h-19.41v20.49c0,1.05-1.45,1.91-3.22,1.91h-12.42c-1.77,0-3.22-.86-3.22-1.91v-20.49h-19.41c-1.77,0-3.22-.86-3.22-1.91v-5.14c0-1.05,1.45-1.91,3.22-1.91h57.68Z"/><path class="cls-2" d="m815.57,826.18s-.03.02-.03.03l-1.86,1.1h41.74c1.77,0,3.22.86,3.22,1.91v7.38c0,1.05-1.02,2.52-2.27,3.26l-10.54,6.26s-.01,0-.02.01c-1.26.73-3.71,1.34-5.47,1.34h-46.37c-1.77,0-3.22-.86-3.22-1.91v-5.14c0-1.05,1.45-1.91,3.22-1.91h37.97l1.89-1.12,1.89-1.12h-41.74c-1.77,0-3.22-.86-3.22-1.91v-7.38c0-.99.89-2.34,2.04-3.12.09-.05.16-.1.24-.15l10.54-6.26c.07-.04.16-.09.25-.14,1.31-.68,3.58-1.21,5.25-1.21h46.37c1.77,0,3.22.86,3.22,1.91v5.14c0,1.05-1.45,1.91-3.22,1.91h-37.97l-1.83,1.08s-.03.03-.05.03h0Z"/><path class="cls-2" d="m724.31,846.22h0c-.05-.04-.11-.07-.17-.11l-16.58-9.84h11.72c1.77,0,3.22-.86,3.22-1.91v-7.38c0-.99-.89-2.34-2.04-3.12-.08-.05-.16-.1-.24-.15l-10.77-6.4c-1.32-.68-3.59-1.21-5.26-1.21h-46.37c-1.77,0-3.22.86-3.22,1.91v27.53c0,1.05,1.45,1.91,3.22,1.91h12.42c1.77,0,3.22-.86,3.22-1.91v-20.48h7.39v11.2l16.58,9.84c1.26.75,3.72,1.35,5.49,1.35h20.27c1.68,0,2.16-.55,1.12-1.24Z"/></svg>