<?xml version="1.0" encoding="UTF-8"?><svg id="Layer_2" xmlns="http://www.w3.org/2000/svg" viewBox="0 0 1296 1728"><defs><style>.cls-1,.cls-2,.cls-3{stroke-width:0px;}.cls-2,.cls-4,.cls-5{fill:#fff;}.cls-6,.cls-4,.cls-7{stroke:#000;}.cls-6,.cls-4,.cls-7,.cls-5{stroke-linejoin:round;stroke-width:4.82px;}.cls-6,.cls-7{fill:none;}.cls-3{fill:#e2452a;}.cls-7{stroke-linecap:round;}.cls-5{stroke:#96999b;}</style></defs><rect class="cls-2" width="1296" height="1728"/><path class="cls-4" d="m499.83,502.75l78.14,47.06s14.17,14.16,85.05,27.76c36.81-20.69,63.63-32.19,69.47-34.72,35.53-15.38,70.07-28.88,86.1-45.14,1.51-1.53,2.81-3.06,3.93-4.58-.07,0-.13,0-.13,0,0,0,.05,0,.13,0,10.73-14.6,4.31-28.16.37-32.49-1.49-1.64-2.71-3.36-5.31-5.41.54,3.75.46,7.79-.35,11.84-2.05,10.22-9.16,19.5-25.41,31.95,16.25-12.45,23.36-21.73,25.41-31.95.81-4.05.89-8.09.35-11.84-.04-.03-.07-.06-.11-.09.04.03.07.06.11.09-1.33-9.29-6.43-16.8-13.57-18.39-.12-.03-.46-.38-.65-.51.19,1.43.26,2.9.19,4.43.54,10.74-4.84,33.85-18.8,46.74-13.97,12.89-46.74,38.14-63.39,48.89-16.65,10.74-46.74,30.08-46.74,30.08l-1.83,1.28s-.01,0-.01,0h.01c.11-.09.96-.83,1.83-4.98.96-4.58-.87-7.62-3.83-9.95-3.1-2.44-7.41-1.55-9.06-.87,3.22-4.84,17.73-13.97,51.57-35.46,33.85-21.49,52.65-46.2,60.71-61.78,8.06-15.58,6.45-20.95,6.45-22.57s-.54-7.52-5.91-13.97c-13.78-16.53-85.75-24.96-119.79-25.42-66.97-.9-106.21,9.13-119.79,25.42-5.37,6.45-5.91,12.36-5.91,13.97s-1.61,6.98,6.45,22.57c8.06,15.58,26.86,40.29,60.71,61.78,33.85,21.49,48.35,30.62,51.58,35.46-1.66-.68-5.98-1.4-9.06.87-3.03,2.23-4.72,6.6-3.83,9.95,1.16,4.38,1.84,4.98,1.84,4.98l-1.84-1.29s-30.09-19.34-46.74-30.08c-14.32-9.24-40.56-29.2-56.51-42.82-7.65-6.53-10.29-8.92-14.11-14.63-8.54-12.78-11.95-29.25-11.59-37.96,0-.04,0-.12-.01-.2-13.49,9.36-16.42,14.17-19.88,19.86-3.01,4.95-9.45,17.99.69,32.03.11.16.23.32.35.48.06,0,.09,0,.09,0,0,0-.04,0-.09,0,1.76,2.32,4.47,4.91,12.75,9.6Z"/><path class="cls-4" d="m517.53,478.94c3.82,5.72,6.46,8.11,14.11,14.63,15.95,13.61,42.19,33.58,56.51,42.82,16.65,10.74,46.74,30.08,46.74,30.08l1.84,1.29s-.68-.59-1.84-4.98c-.89-3.35.8-7.72,3.83-9.95,3.09-2.27,7.41-1.55,9.06-.87-3.22-4.84-17.73-13.97-51.58-35.46-33.85-21.49-52.65-46.2-60.71-61.78-8.06-15.58-6.45-20.95-6.45-22.57s.54-7.52,5.91-13.97c13.58-16.29,52.82-26.32,119.79-25.42,34.04.45,106.01,8.88,119.79,25.42,5.37,6.45,5.91,12.36,5.91,13.97s1.61,6.99-6.45,22.57c-8.06,15.58-26.86,40.29-60.71,61.78-33.85,21.49-48.35,30.62-51.57,35.46,1.66-.68,5.97-1.57,9.06.87,2.96,2.33,4.79,5.37,3.83,9.95-.87,4.14-1.72,4.89-1.83,4.97l1.83-1.28s30.09-19.34,46.74-30.08c16.65-10.75,49.43-36,63.39-48.89,13.97-12.89,19.34-36,18.8-46.74.07-1.53,0-3-.19-4.43-.04-.02-.07-.06-.1-.06.02,0,.06.04.1.06-1.27-9.64-8.12-17.3-17-26.19-20.3-20.3-94.8-26.9-131.61-27.35-70.88-.88-111.55,7.28-131.61,27.35-10.21,10.21-17.73,18.8-17.19,30.62,0,0-.02.01-.02.02,0,.08.02.16.01.2-.36,8.7,3.05,25.18,11.59,37.96Z"/><path class="cls-4" d="m405.48,678.27c-10.05-26.02-20.57-65.93-26.04-85.06-5.45-19.07-7.22-37.23,1.78-64.86-1.37.67-3.39,1.96-4.01,2.85-18.78,26.49-30.42,46.83-30.42,87.34s-30.18,114.19-35.79,160.49c-5.61,46.3-11.92,151.02-11.92,177.68s-11.13,39.63-14.36,51.48c-3.23,11.84-5.92,15.61-5.38,22.07.54,6.46,11.31,18.84,10.77,25.3-.54,6.46-11.36,13.31-10.84,22.07.57,9.47,10.8,13.78,10.8,21.85s-6.46,9.69-8.07,22.07c-1.61,12.38-4.05,106.71-4.05,106.71,0,0-4.31,24.23,5.92,26.38.37.08.83.15,1.35.22,0-.05,0-.09,0-.09,0,0,0,.04,0,.09,13.73,1.86,76.45.91,76.45.91,0,0,4.42.15,8.63-3.03v-.19.19c3.71-2.8,7.26-8.17,7.52-18.51.54-22.07,4.85-58.84,6.46-70.69,1.62-11.84,14-52.22,16.69-75.37,2.69-23.15,12.74-156.7,10.59-176.06-1.96-17.65,12.67-29.57,18.53-88.19.08-8.48.47-15.11,1.4-18.44,0-58.95-17.18-104.39-26.01-127.23Z"/><path class="cls-5" d="m672.78,567.75h-.01s0,0,.01,0Z"/><path class="cls-4" d="m361.67,1255.78s-62.72.95-76.45-.91c-.11,2.46-2.7,46.24-3.16,62.35-.04,1.55-.07,10.76-.07,11.41,0,8.58-.55,16.17,9.85,16.17,14.84,0,45.62.48,62.85.48,11.28,0,15.61-2.46,15.61-11.48,0-11.04-.02-10.31-.02-22.38,0-15.1.02-55.02.02-58.67-4.22,3.18-8.63,3.03-8.63,3.03Z"/><path class="cls-4" d="m427.36,1160.25s0,0-.01,0c-.25,3.46-5.36,76.14.12,93.94,5.61,18.24,143.13,28.82,196.45,29.37,10.9.11,53.95.21,62.44,0,53.31-1.28,190.83-11.13,196.45-29.37,5.59-18.15.06-90.47,0-91.19-44.56,20.7-48.57,35.52-230.6,35.52-216.55,0-224.84-38.27-224.84-38.27Z"/><path class="cls-4" d="m1018.96,1214.07c0-13.95-9.72-50.31-10.15-67.64-.42-17.33,3.8-58.34,5.49-66.37,1.69-8.03-5.92-8.45-5.07-16.06.85-7.61-2.11-33.82-4.65-52l-6.05-60.76c-1.38-15.98,3.5-23.53,3.14-31.59-.36-8.07-8.14-12.86-9.13-22.29-.91-8.73,3.4-16.06,3.65-22.54.25-6.48-2.8-16.17-3.62-22.6-.82-6.43-.64-9.07,0-11.79,7.88-47.79-1.96-53.38-7.5-102.79-4.65-41.43-16.94-93.01-19.9-112.03-2.77-17.84-19.29-83.47-32.14-95.37-.84-.78-2.89-2.09-4.58-2.15,9.11,27.78,7.33,46,1.87,65.14-5.47,19.13-15.98,59.04-26.04,85.06-8.83,22.84-26.01,68.27-26.01,127.23-.57,7.36-.17,24.64.61,44.12,2.9,41.58,15.27,87.75,15.27,95.58,0,8.88-7.35,65.53-3.04,79.05,4.31,13.53,5.15,74.83,6.42,82.44,1.27,7.61,18.6,31.71,19.45,43.54.85,11.84-6.88,37.62-5.61,46.08,1.27,8.46,10.57,21.56,11.84,29.59,1.27,8.03-8.45,12.26-7.19,16.91,1.27,4.65-2.9,12.96,8.88,12.96h0v-.11.11h83.49c0-.12,0-.19,0-.19,0,0,0,.06,0,.19,2.13,0,7.72-2.7,8.74-10.4,1.94-14.7,1.82-21.38,1.82-31.3Z"/><path class="cls-4" d="m924.9,1255.78c0,2.7.03,41.38,0,52.32-.03,11.21-.26,17.79,0,23.39.27,5.61-.12,12.24,7.08,12.9,6.76.62,62.65,0,68.74,0s9.74-3.33,9.74-18.59c0-21.17-1.94-66.2-2.06-70.02h-83.49Z"/><path class="cls-4" d="m878.27,805.5c0-58.96,17.18-104.39,26.01-127.23,10.05-26.02,20.57-65.93,26.04-85.06,5.47-19.13,7.24-37.35-1.87-65.14-.04,0-.08-.01-.12-.01.04,0,.08,0,.12.01,0,0,0,0,0-.01-25.35-26.23-99.57-34.3-105.54-34.91-.15-.01-.29-.02-.39-.03-1.12,1.52-2.42,3.05-3.93,4.58-16.02,16.25-50.56,29.76-86.1,45.14-5.85,2.53-32.66,14.04-69.47,34.72q1.28.25,0,0-.44.25,0,0c-70.88-13.59-85.05-27.76-85.05-27.76l-78.14-47.06c-8.29-4.7-10.99-7.29-12.75-9.6-2.88.28-79.84,8.09-105.77,34.92-.03.1-.06.19-.09.29.24-.12.46-.22.64-.29-.19.07-.41.18-.64.29-9,27.62-7.22,45.79-1.78,64.86,5.47,19.13,15.98,59.04,26.04,85.06,8.83,22.84,26.01,68.28,26.01,127.23-.93,3.33-1.32,9.96-1.4,18.44.57-5.69,1.06-11.81,1.44-18.44-.38,6.62-.87,12.74-1.44,18.44-.2,20.55,1.4,51.98,1.4,73.67,0,30.64-8.46,104.01-9.86,133.47-1.4,29.47-11.78,85.22-9.89,103.17,1.89,17.92,14.16,24.56,15.62,25.99,0-.08.01-.14.01-.14,0,0,0,.06-.01.14,0,0,0,0,.01,0,0,0,8.29,38.27,224.84,38.27,182.03,0,186.04-14.83,230.6-35.52,0,0,0-.02,0-.02,0,0,9.82-9.82,12.63-22.45,2.81-12.63-14.03-89.8-12.63-120.67,1.4-30.87,1.4-72.01,0-94.46-.84-13.39-2.79-46.99-3.93-75.78-.05-.71-.1-1.43-.14-2.14.04.71.09,1.42.14,2.14-.77-19.47-1.17-36.76-.61-44.12Z"/><path class="cls-7" d="m738.85,479.53c6.96-13.65-.31-21.06-5.32-26.59"/><path class="cls-1" d="m652.03,567.17c2.69-3.34,2.94-7.53,1.69-10.66-.88-4.21-4.31-6.38-4.7-6.62,0,0-9.06,1.46-11.81,4.58l-3.73,6.11c1.67,1.79,3.96,11.51,7.25,11.5.23.66.45,1.33.62,2,.61,2.41.78,4.83.52,7.23-.07.6-.17,1.2-.29,1.79l-.5,2.16c-.37,1.55-.67,3.1-.98,4.65-.6,3.12-1.15,6.26-1.55,9.44-.38,3.19-.66,6.41-.76,9.68-.02.82-.04,1.64-.03,2.46,0,.41-.01.83.03,1.24.08.41.53.83,1.01,1.23.48.4.88.8.93,1.2.06.22.11.6.15.99l.24,2.41c.33,3.27.83,6.51,1.54,9.86l4.42-1.53c-1.3-2.49-1.55-5.47-1.25-8.36.07-.73.19-1.46.32-2.22.07-.38.14-.78.19-1.33.04-.37.4-.74.88-1.11.47-.37.91-.73,1-1.08.05-.36.03-.72.06-1.08.03-.72.08-1.44.14-2.16.23-2.89.62-5.82,1.12-8.74.49-2.93,1.04-5.86,1.69-8.79l1.01-4.39.55-2.35c.19-.91.35-1.84.45-2.77.46-3.74.11-7.57-.89-11.12-.25-.9-.54-1.79-.86-2.65.6-.51,1.13-1.05,1.55-1.57Zm-5.23-5.55c-1.25-1.87-2.66-3.6-4.19-5.21,2.15-.87,4.78-.25,5.84.66,1.29,1.11,1.88,4.46-.14,7.02-.47-.85-.98-1.67-1.51-2.47Z"/><path class="cls-1" d="m675.92,560.97l-3.66-7.98c-2.49-1.89-12.2-2.79-12.2-2.79-2.49,2.32-3.4,7.24-3.17,9.11h0c.14,2.52,1.25,5.09,2.93,7.05-.32.91-.59,1.85-.77,2.81-.1.51-.18,1.02-.24,1.54-.05.46-.09.95-.13,1.38-.23,3.45-.17,6.57-.04,9.77.12,3.17.32,6.33.65,9.49.34,3.17.69,6.32,1.36,9.62l.45,2.18.39,2.17c.25,1.47.47,2.95.69,4.45l.31,2.25c.03.19.04.38.09.56.06.18.18.36.36.54.34.35.94.67,1.3,1.02.18.17.32.35.38.54.06.19.08.38.13.56l.23,1.13c.14.76.28,1.51.38,2.27.22,1.52.39,3.04.46,4.57.04.76.04,1.53.02,2.29,0,.38-.03.76-.06,1.12-.01.18-.03.37-.06.53,0,0,0,0,0,0l5.46,1c.05-.4.03-.48.03-.58l-.02-.23-.05-.35-.1-.62c-.06-.4-.14-.79-.18-1.18-.11-.78-.22-1.55-.29-2.33-.16-1.55-.25-3.1-.29-4.65-.03-.78-.03-1.56-.03-2.33v-1.17c.02-.2,0-.39.03-.59.03-.2.13-.4.27-.61.28-.42.8-.86,1.07-1.28.14-.21.22-.42.24-.62.01-.2-.02-.39-.03-.59l-.2-2.34c-.14-1.57-.3-3.13-.49-4.72l-.31-2.4c-.1-.78-.26-1.72-.37-2.37-.43-2.77-.74-5.76-.95-8.73-.21-2.98-.39-5.99-.49-8.98-.05-1.49-.08-2.99-.09-4.46-.02-1.47-.02-2.94.05-4.27.02-.34.03-.62.07-.92.02-.22.05-.45.09-.68,5.56-.02,5-8.75,6.8-10.17Zm-8.79-5.07c-1.69,1.48-3.25,3.19-4.57,5.12-.08.12-.15.24-.23.36-.8-1.77-.9-3.75.22-4.83,1.04-1.01,2.97-1.03,4.59-.65Z"/><path class="cls-7" d="m570.99,480.51c-7.53-13.23-.02-22.34,4.98-27.88"/><path class="cls-1" d="m673.18,480.28c0,1.13-1.03,2.04-2.3,2.04h-32.42c-1.27,0-2.3-.91-2.3-2.04v-20.19c0-1.13,1.03-2.04,2.3-2.04h32.42c1.27,0,2.3.91,2.3,2.04v20.19Z"/><path class="cls-6" d="m571.89,482.7h0c-7.01-13.09,15.24-24.66,82.78-24.66s89.78,11.56,82.78,24.65h0c-14.2,22.99-76.39,59.57-76.39,59.57,0,0,62.19-36.58,76.39-59.57h0c7.01-13.09-15.24-24.65-82.78-24.65s-89.78,11.56-82.78,24.65h0c14.21,23,76.39,59.57,76.39,59.57,0,0-62.18-36.57-76.39-59.57Z"/><path class="cls-1" d="m848.66,725.56c.81-.66,1.29-1.55,1.29-2.57.49-7.52-.92-6.49-6.52-10.4-3.67-1.96-9.25-7.32-13.05-7.42-3.49.44-42.58-1.19-44.69,1.26,0,0-.05.03-.05.03,0,0-.22.12-.26.15l-5.28,3.13c-2.92-1.58-5.21-4.45-8.74-4.57,0,0-13.2,0-25.88,0,.25-7.63.52-17.97-1.79-18.33-3.4-2.25-6.81-4.51-10.22-6.76-2.51-1.41-4.49-3.8-7.6-3.81-14.87.4-15.96-3.04-15.34,13.53-.45-.25-20.22-12.04-20.67-12.27-3.41-2.15-15.35-.98-19.26-1.26-1.95,0-3.56.81-4.33,2.03-1.52-1.02-2.88-2.1-4.92-2.04-2.13.84-53.93-2.14-53.21,2.05.15-3.97-54.27-1.35-56.77-2.05-5.7.06-4.83,4.64-4.81,8.44-1.5-1.36-9.69-5.76-11.5-7.01-2.86-2.76-34.56-.95-38.59-1.44-4.34-.47-11.07,4.91-14.64,6.74-4.25,1.91-2.71,9.14-2.95,12.7.46,4.66,6.15,6.13,9.29,8.75.32.22.65.45.99.68-4.65-.22-10.36-.3-10.36,3.74,0,0,0,23.33,0,23.33.04,1.05.66,1.95,1.56,2.76-.92.58-1.48,1.44-1.48,2.71,0,0,0,23.33,0,23.33-.05,1.19.67,2.05,1.58,2.77-1.02.59-1.66,1.46-1.66,2.74v23.33c-.07,2.32,2.61,3.36,4.25,4.55,4.01,2.66,8.02,5.31,12.04,7.96,1.96,1.78,11.36.67,13.81.96,2.74,0,4.81-1.59,4.81-3.7v-9.49c2.15.93,14.78,9.71,17.1,9.14,2.34.25,6.21-2.86,8.15-3.83,2.43,1.61,4.85,3.21,7.28,4.82,2.1,1.24,3.78,3.12,6.46,3.06,3.03-.46,13.16,1.44,14.85-2.03,2.8,3.16,11.74,1.76,15.43,2.03,5.66-.01,4.84-4.69,4.81-8.44,4.71,2.65,11.48,8.42,17.23,8.44,2.72-.83,43.12,2.12,43.61-2.05,1.54,3.96,40.83,1.35,44.22,2.05,4.45.4,11.03-4.88,14.64-6.74,1.46-.87,2.95-2.71,2.95-4.55-.42-1.96,1-7.53-1.29-8.81.81-.66,1.29-1.55,1.29-2.57.21-3.28.07-4.93-.63-6.08,9.12-.07,17.42-.22,18.01-.08,4.42.43,11.03-4.88,14.64-6.74,1.46-.87,2.95-2.71,2.95-4.55-.28-3.32,1.25-10.64-2.64-12.51l-.99-.67h0s-.26-.17-.26-.17h0s-.4-.27-.4-.27h0s-.26-.17-.26-.17h0s-.45-.3-.45-.3h0s-.24-.16-.24-.16h0s-.22-.15-.22-.15h0s-.22-.15-.22-.15h0s-.22-.15-.22-.15h0s-.45-.3-.45-.3h0s-.19-.13-.19-.13h0s-.26-.17-.26-.17h0s-.22-.15-.22-.15h0s-.18-.12-.18-.12h0s-.46-.31-.46-.31h0s-.48-.32-.48-.32h0s-.18-.12-.18-.12h0s-.27-.18-.27-.18h0s-.41-.28-.41-.28h0s-.26-.17-.26-.17h0s-.19-.13-.19-.13h0s-.26-.17-.26-.17h0s-.22-.15-.22-.15h0s-.43-.29-.43-.29h0s-.12-.08-.12-.08c2.05-.74,2.55-2.84.38-4.57-2.34-1.54-4.67-3.09-7.01-4.63,7.93.56,6.24-4.78,6.37-10.08.66.33,1.44.53,2.25.57.29,2.28-1.01,7.13,1.75,8.42,4.84,3.21,9.69,6.41,14.53,9.61,1.96,1.77,11.35.67,13.81.96,2.74,0,4.81-1.59,4.81-3.7v-15.28h1.97c-.92,8.13-.17,7.23,6.07,11.41,2.35,1.55,4.69,3.11,7.04,4.66,2.02,1.21,3.65,2.97,6.23,2.91,3.79-.5,42.54,1.34,44.95-1.41,2.66-2.26,12.17-5.3,11.92-9.89-.51-1.97,1.06-7.52-1.29-8.81Z"/><path class="cls-3" d="m535.3,756.64v4.35c0,.89-1.23,1.62-2.73,1.62h-48.88c-1.5,0-2.73-.73-2.73-1.62v-23.33c0-.89,1.23-1.62,2.73-1.62h10.53c1.5,0,2.73.73,2.73,1.62v17.36h35.62c1.5,0,2.73.73,2.73,1.62Z"/><path class="cls-3" d="m604.14,745.26v8.15c0,.89-.87,2.13-1.94,2.76l-8.92,5.3c-.06.04-.14.08-.21.12-1.11.58-3.04,1.03-4.45,1.03h-32.87c-1.5,0-3.59-.51-4.65-1.14l-8.92-5.3c-1.06-.63-1.94-1.87-1.94-2.76v-8.15c0-.89.87-2.13,1.94-2.76l8.92-5.3c.06-.04.14-.08.21-.12,1.11-.58,3.04-1.03,4.45-1.03h32.87c1.5,0,3.59.51,4.65,1.14l8.92,5.3c1.06.63,1.94,1.87,1.94,2.76Zm-15.98,2.33l-6.65-3.95h-18.63l-1.72,1.03c-.07.04-.15.08-.21.12l-2.78,1.66-1.94,1.14v3.49l6.64,3.95h18.63l1.72-1.03c.07-.04.15-.08.21-.12l2.78-1.66,1.94-1.14v-3.49Z"/><path class="cls-3" d="m665.68,737.67v15.74c0,.89-.86,2.13-1.93,2.76l-8.93,5.31s-.01,0-.02.01c-1.06.62-3.14,1.13-4.64,1.13h-26.51c-1.49,0-3.57-.51-4.64-1.13,0,0-.01,0-.02-.01l-8.93-5.31c-1.06-.63-1.93-1.87-1.93-2.76v-15.74c0-.89,1.23-1.62,2.73-1.62h10.53c1.5,0,2.73.73,2.73,1.62v13.41l6.64,3.95h12.27l1.93-1.14,2.79-1.66,1.93-1.14v-13.41c0-.89,1.23-1.62,2.73-1.62h10.53c1.5,0,2.73.73,2.73,1.62Z"/><path class="cls-3" d="m726.87,742.61c.97.66,1.73,1.8,1.73,2.64v8.15c0,.89-.86,2.13-1.93,2.76l-8.93,5.31c-.06.04-.14.08-.21.12-1.11.58-3.04,1.03-4.45,1.03h-39.29c-1.5,0-2.73-.73-2.73-1.62v-23.33c0-.89,1.23-1.62,2.73-1.62h39.29c1.41,0,3.34.45,4.45,1.03.07.04.15.08.21.12l8.93,5.3c.06.04.14.08.2.12h0Zm-14.25,8.46v-3.49l-1.73-1.02c-.06-.04-.14-.09-.2-.12l-2.79-1.66c-.06-.04-.14-.08-.21-.12l-1.72-1.03h-18.92v11.39h18.92l1.93-1.14,2.79-1.66,1.93-1.14h0Z"/><path class="cls-3" d="m544.86,687.56v8.15c0,.89-.87,2.13-1.94,2.76l-8.92,5.3c-.06.04-.14.08-.21.12-1.11.58-3.04,1.03-4.45,1.03h-32.87c-1.5,0-3.59-.51-4.65-1.14l-8.92-5.3c-1.06-.63-1.94-1.87-1.94-2.76v-8.15c0-.89.87-2.13,1.94-2.76l8.92-5.3c.06-.04.14-.08.21-.12,1.11-.58,3.04-1.03,4.45-1.03h32.87c1.5,0,3.59.51,4.65,1.14l8.92,5.3c1.06.63,1.94,1.87,1.94,2.76Zm-15.98,2.33l-6.65-3.95h-18.63l-1.72,1.03c-.07.04-.15.08-.21.12l-2.78,1.66-1.94,1.14v3.49l6.64,3.95h18.63l1.72-1.03c.07-.04.15-.08.21-.12l2.78-1.66,1.94-1.14v-3.49Z"/><path class="cls-3" d="m605.94,679.97v6.25c0,.84-.75,1.98-1.73,2.64-.06.04-.14.09-.2.12l-8.92,5.3c-.06.04-.14.08-.21.12-1.12.58-3.04,1.03-4.45,1.03h-25.81v7.87c0,.89-1.23,1.62-2.73,1.62h-10.53c-1.5,0-2.73-.73-2.73-1.62v-23.33c0-.89,1.23-1.62,2.73-1.62h51.84c1.5,0,2.73.73,2.73,1.62Zm-20.91,6.85l1.48-.87h-21.89v1.89h18.69l1.43-.85c.06-.03.12-.06.17-.1,0,0,.03-.02.03-.02l.09-.05h0Z"/><path class="cls-3" d="m625.73,685.94v1.89h35.62c1.5,0,2.73.73,2.73,1.62v4.36c0,.89-1.23,1.62-2.73,1.62h-35.62v1.89h35.62c1.5,0,2.73.73,2.73,1.62v4.36c0,.89-1.23,1.62-2.73,1.62h-48.87c-1.5,0-2.73-.73-2.73-1.62v-23.33c0-.89,1.23-1.62,2.73-1.62h48.87c1.5,0,2.73.73,2.73,1.62v4.35c0,.89-1.23,1.62-2.73,1.62h-35.62Z"/><path class="cls-3" d="m725.87,678.35c1.5,0,2.73.73,2.73,1.62v23.33c0,.89-1.23,1.62-2.73,1.62h-13.84c-1.5,0-3.59-.51-4.65-1.14l-21.58-12.82c-.05-.03-.1-.06-.15-.09l-1.78-1.06v13.49c0,.89-1.23,1.62-2.73,1.62h-10.53c-1.5,0-2.73-.73-2.73-1.62v-23.33c0-.89,1.23-1.62,2.73-1.62h13.85c1.41,0,3.34.45,4.45,1.03.07.04.15.08.21.12l21.57,12.82,1.93,1.14v-13.49c0-.89,1.23-1.62,2.73-1.62h10.53Z"/><path class="cls-3" d="m548.48,764.88c1.5,0,2.73.73,2.73,1.62v23.33c0,.89-1.23,1.62-2.73,1.62h-10.53c-1.5,0-2.73-.73-2.73-1.62v-13.15l-1.77,1.06c-.05.03-.1.05-.15.09l-15.32,9.1h0c-1.06.63-2.78.63-3.85,0l-15.33-9.1c-.05-.03-.1-.06-.15-.09l-1.77-1.06v13.15c0,.89-1.23,1.62-2.73,1.62h-10.53c-1.5,0-2.73-.73-2.73-1.62v-23.33c0-.89,1.23-1.62,2.73-1.62h13.28c1.41,0,3.34.45,4.45,1.03.07.04.15.08.21.12l12.57,7.47,1.93,1.14,1.93-1.14,12.57-7.47c.06-.04.14-.08.21-.12,1.11-.58,3.04-1.03,4.45-1.03h13.27Z"/><path class="cls-3" d="m570.97,766.5v23.33c0,.89-1.23,1.62-2.73,1.62h-10.53c-1.5,0-2.73-.73-2.73-1.62v-23.33c0-.89,1.23-1.62,2.73-1.62h10.53c1.5,0,2.73.73,2.73,1.62Z"/><path class="cls-3" d="m592.47,775.4l-1.73,1.02v3.49l6.64,3.95h32.17c1.5,0,2.73.73,2.73,1.62v4.36c0,.89-1.23,1.62-2.73,1.62h-39.28c-1.5,0-3.59-.51-4.65-1.14l-8.94-5.31c-1.06-.63-1.93-1.87-1.93-2.76v-8.15c0-.84.75-1.98,1.73-2.64.06-.04.14-.09.2-.12l8.94-5.3c.06-.04.14-.08.21-.12,1.11-.58,3.04-1.03,4.45-1.03h39.28c1.5,0,2.73.73,2.73,1.62v4.35c0,.89-1.23,1.62-2.73,1.62h-32.17l-1.72,1.03c-.07.04-.15.08-.21.12l-2.79,1.66c-.06.04-.14.08-.2.12h0Z"/><path class="cls-3" d="m657.13,773.42s-.03.02-.03.02l-1.57.93h35.37c1.5,0,2.73.73,2.73,1.62v6.25c0,.89-.86,2.13-1.93,2.76l-8.93,5.31s-.01,0-.02.01c-1.06.62-3.15,1.13-4.64,1.13h-39.29c-1.5,0-2.73-.73-2.73-1.62v-4.36c0-.89,1.23-1.62,2.73-1.62h32.17l1.6-.95,1.6-.94h-35.37c-1.5,0-2.73-.73-2.73-1.62v-6.25c0-.84.75-1.98,1.73-2.64.07-.04.14-.09.2-.12l8.93-5.3c.06-.04.14-.08.21-.12,1.11-.58,3.04-1.03,4.44-1.03h39.29c1.5,0,2.73.73,2.73,1.62v4.35c0,.89-1.23,1.62-2.73,1.62h-32.17l-1.55.92s-.03.02-.05.03h0Z"/><path class="cls-3" d="m538.41,708.87v23.33c0,.89-1.23,1.62-2.73,1.62h-10.53c-1.5,0-2.73-.73-2.73-1.62v-7.87h-25.57v7.87c0,.89-1.23,1.62-2.73,1.62h-10.52c-1.5,0-2.73-.73-2.73-1.62v-23.33c0-.89,1.23-1.62,2.73-1.62h10.52c1.5,0,2.73.73,2.73,1.62v7.87h25.57v-7.87c0-.89,1.23-1.62,2.73-1.62h10.53c1.5,0,2.73.73,2.73,1.62Z"/><path class="cls-3" d="m558.17,714.84v1.89h35.62c1.5,0,2.73.73,2.73,1.62v4.36c0,.89-1.23,1.62-2.73,1.62h-35.62v1.89h35.62c1.5,0,2.73.73,2.73,1.62v4.36c0,.89-1.23,1.62-2.73,1.62h-48.87c-1.5,0-2.73-.73-2.73-1.62v-23.33c0-.89,1.23-1.62,2.73-1.62h48.87c1.5,0,2.73.73,2.73,1.62v4.35c0,.89-1.23,1.62-2.73,1.62h-35.62Z"/><path class="cls-3" d="m657.83,709.11v23.09c0,.89-1.23,1.62-2.73,1.62h-10.53c-1.5,0-2.73-.73-2.73-1.62v-4.08h-25.56v4.08c0,.89-1.23,1.62-2.73,1.62h-10.53c-1.5,0-2.73-.73-2.73-1.62v-15.75c0-.83.75-1.98,1.73-2.63.07-.05.14-.09.2-.12l8.93-5.3c.06-.04.14-.08.21-.12,1.11-.58,3.04-1.03,4.44-1.03h38.88c1.73,0,3.13.83,3.13,1.86Zm-15.98,5.72h-18.92l-1.72,1.03c-.07.04-.15.08-.21.12l-4.72,2.8v1.75h25.56v-5.7Z"/><path class="cls-3" d="m771.35,707.25c1.5,0,2.73.73,2.73,1.62v4.35c0,.89-1.23,1.62-2.73,1.62h-16.44v17.36c0,.89-1.23,1.62-2.73,1.62h-10.53c-1.5,0-2.73-.73-2.73-1.62v-17.36h-16.44c-1.5,0-2.73-.73-2.73-1.62v-4.35c0-.89,1.23-1.62,2.73-1.62h48.87Z"/><path class="cls-3" d="m796.61,715.79s-.03.02-.03.02l-1.57.93h35.37c1.5,0,2.73.73,2.73,1.62v6.25c0,.89-.86,2.13-1.93,2.76l-8.93,5.31s-.01,0-.02.01c-1.06.62-3.15,1.13-4.64,1.13h-39.29c-1.5,0-2.73-.73-2.73-1.62v-4.36c0-.89,1.23-1.62,2.73-1.62h32.17l1.6-.95,1.6-.94h-35.37c-1.5,0-2.73-.73-2.73-1.62v-6.25c0-.84.75-1.98,1.73-2.64.07-.04.14-.09.2-.12l8.93-5.3c.06-.04.14-.08.21-.12,1.11-.58,3.04-1.03,4.44-1.03h39.29c1.5,0,2.73.73,2.73,1.62v4.35c0,.89-1.23,1.62-2.73,1.62h-32.17l-1.55.92s-.03.02-.05.03h0Z"/><path class="cls-3" d="m719.29,732.77h0s-.09-.06-.15-.09l-14.04-8.34h9.93c1.5,0,2.73-.73,2.73-1.62v-6.25c0-.84-.75-1.98-1.73-2.64-.06-.04-.14-.09-.2-.12l-9.13-5.42c-1.12-.58-3.05-1.03-4.45-1.03h-39.29c-1.5,0-2.73.73-2.73,1.62v23.33c0,.89,1.23,1.62,2.73,1.62h10.53c1.5,0,2.73-.73,2.73-1.62v-17.36h6.26v9.49l14.04,8.34c1.06.63,3.15,1.14,4.65,1.14h17.17c1.43,0,1.83-.46.95-1.05Z"/></svg>