<?xml version="1.0" encoding="UTF-8"?><svg id="Layer_2" xmlns="http://www.w3.org/2000/svg" viewBox="0 0 1296 1728"><defs><style>.cls-1{opacity:.2;}.cls-1,.cls-2,.cls-3,.cls-4{fill:none;}.cls-1,.cls-5,.cls-3,.cls-6,.cls-7{stroke-width:0px;}.cls-2{stroke-width:4.76px;}.cls-2,.cls-4{stroke:#231f20;stroke-miterlimit:10;}.cls-6{fill:#f1e83c;}.cls-7{fill:#fff;}.cls-4{stroke-width:3.46px;}</style></defs><rect class="cls-7" x="0" width="1296" height="1728"/><path class="cls-3" d="m648,1258.76h269.34l-6.55-496.87,149.84.77,32.27-195.45c-62.24-20.75-327.33-82.99-327.33-82.99l-26.51-14.98s-40.34,11.53-91.05,11.53-91.05-11.53-91.05-11.53l-26.51,14.98s-265.09,62.24-327.33,82.99l32.27,195.45,149.84-.77-6.55,496.87h269.34Z"/><path class="cls-2" d="m648,1258.76h269.34l-6.55-496.87,149.84.77,32.27-195.45c-62.24-20.75-327.33-82.99-327.33-82.99l-26.51-14.98s-40.34,11.53-91.05,11.53-91.05-11.53-91.05-11.53l-26.51,14.98s-265.09,62.24-327.33,82.99l32.27,195.45,149.84-.77-6.55,496.87h269.34Z"/><path class="cls-4" d="m403.59,514.64s12.74,181.88-18.38,247.25"/><path class="cls-4" d="m891.26,514.64s-12.74,181.88,18.38,247.25"/><path class="cls-4" d="m765.56,484.22c-16.22,65.69-58.47,112.33-128.51,107.52-47.6-3.27-83.82-44.63-99.69-85.9-2.72-7.06-5.11-14.27-6.92-21.62"/><path class="cls-4" d="m739.05,469.24s-16.14,91.88-91.05,91.88-91.05-91.88-91.05-91.88"/><path class="cls-4" d="m564.34,494.19s80.62,25.83,167.32,0"/><path class="cls-1" d="m731.66,494.19c-86.7,25.83-167.32,0-167.32,0h0c10.56,27.21,34.4,66.93,83.66,66.93s73.1-39.72,83.66-66.93h0Z"/><path class="cls-5" d="m832.23,727.77c.81-.66,1.29-1.55,1.29-2.57.49-7.52-.92-6.49-6.52-10.4-3.67-1.96-9.25-7.32-13.05-7.42-3.49.44-42.58-1.19-44.69,1.26,0,0-.05.03-.05.03,0,0-.22.12-.26.15l-5.28,3.13c-2.92-1.58-5.21-4.45-8.74-4.57,0,0-13.2,0-25.88,0,.25-7.63.52-17.97-1.79-18.33-3.4-2.25-6.81-4.51-10.22-6.76-2.51-1.41-4.49-3.8-7.6-3.81-14.87.4-15.96-3.04-15.34,13.53-.45-.25-20.22-12.04-20.67-12.27-3.41-2.15-15.35-.98-19.26-1.26-1.95,0-3.56.81-4.33,2.03-1.52-1.02-2.88-2.1-4.92-2.04-2.13.84-53.93-2.14-53.21,2.05.15-3.97-54.27-1.35-56.77-2.05-5.7.06-4.83,4.64-4.81,8.44-1.5-1.36-9.69-5.76-11.5-7.01-2.86-2.76-34.56-.95-38.59-1.44-4.34-.47-11.07,4.91-14.64,6.74-4.25,1.91-2.71,9.14-2.95,12.7.46,4.66,6.15,6.13,9.29,8.75.32.22.65.45.99.68-4.65-.22-10.36-.3-10.36,3.74,0,0,0,23.33,0,23.33.04,1.05.66,1.95,1.56,2.76-.92.58-1.48,1.44-1.48,2.71,0,0,0,23.33,0,23.33-.05,1.19.67,2.05,1.58,2.77-1.02.59-1.66,1.46-1.66,2.74v23.33c-.07,2.32,2.61,3.36,4.25,4.55,4.01,2.66,8.02,5.31,12.04,7.96,1.96,1.78,11.36.67,13.81.96,2.74,0,4.81-1.59,4.81-3.7v-9.49c2.15.93,14.78,9.71,17.1,9.14,2.34.25,6.21-2.86,8.15-3.83,2.43,1.61,4.85,3.21,7.28,4.82,2.1,1.24,3.78,3.12,6.46,3.06,3.03-.46,13.16,1.44,14.85-2.03,2.8,3.16,11.74,1.76,15.43,2.03,5.66-.01,4.84-4.69,4.81-8.44,4.71,2.65,11.48,8.42,17.23,8.44,2.72-.83,43.12,2.12,43.61-2.05,1.54,3.96,40.83,1.35,44.22,2.05,4.45.4,11.03-4.88,14.64-6.74,1.46-.87,2.95-2.71,2.95-4.55-.42-1.96,1-7.53-1.29-8.81.81-.66,1.29-1.55,1.29-2.57.21-3.28.07-4.93-.63-6.08,9.12-.07,17.42-.22,18.01-.08,4.42.43,11.03-4.88,14.64-6.74,1.46-.87,2.95-2.71,2.95-4.55-.28-3.32,1.25-10.64-2.64-12.51l-.99-.67h0s-.26-.17-.26-.17h0s-.4-.27-.4-.27h0s-.26-.17-.26-.17h0s-.45-.3-.45-.3h0s-.24-.16-.24-.16h0s-.22-.15-.22-.15h0s-.22-.15-.22-.15h0s-.22-.15-.22-.15h0s-.45-.3-.45-.3h0s-.19-.13-.19-.13h0s-.26-.17-.26-.17h0s-.22-.15-.22-.15h0s-.18-.12-.18-.12h0s-.46-.31-.46-.31h0s-.48-.32-.48-.32h0s-.18-.12-.18-.12h0s-.27-.18-.27-.18h0s-.41-.28-.41-.28h0s-.26-.17-.26-.17h0s-.19-.13-.19-.13h0s-.26-.17-.26-.17h0s-.22-.15-.22-.15h0s-.43-.29-.43-.29h0s-.12-.08-.12-.08c2.05-.74,2.55-2.84.38-4.57-2.34-1.54-4.67-3.09-7.01-4.63,7.93.56,6.24-4.78,6.37-10.08.66.33,1.44.53,2.25.57.29,2.28-1.01,7.13,1.75,8.42,4.84,3.21,9.69,6.41,14.53,9.61,1.96,1.77,11.35.67,13.81.96,2.74,0,4.81-1.59,4.81-3.7v-15.28h1.97c-.92,8.13-.17,7.23,6.07,11.41,2.35,1.55,4.69,3.11,7.04,4.66,2.02,1.21,3.65,2.97,6.23,2.91,3.79-.5,42.54,1.34,44.95-1.41,2.66-2.26,12.17-5.3,11.92-9.89-.51-1.97,1.06-7.52-1.29-8.81Z"/><path class="cls-6" d="m518.88,758.86v4.35c0,.89-1.23,1.62-2.73,1.62h-48.88c-1.5,0-2.73-.73-2.73-1.62v-23.33c0-.89,1.23-1.62,2.73-1.62h10.53c1.5,0,2.73.73,2.73,1.62v17.36h35.62c1.5,0,2.73.73,2.73,1.62Z"/><path class="cls-6" d="m587.72,747.47v8.15c0,.89-.87,2.13-1.94,2.76l-8.92,5.3c-.06.04-.14.08-.21.12-1.11.58-3.04,1.03-4.45,1.03h-32.87c-1.5,0-3.59-.51-4.65-1.14l-8.92-5.3c-1.06-.63-1.94-1.87-1.94-2.76v-8.15c0-.89.87-2.13,1.94-2.76l8.92-5.3c.06-.04.14-.08.21-.12,1.11-.58,3.04-1.03,4.45-1.03h32.87c1.5,0,3.59.51,4.65,1.14l8.92,5.3c1.06.63,1.94,1.87,1.94,2.76Zm-15.98,2.33l-6.65-3.95h-18.63l-1.72,1.03c-.07.04-.15.08-.21.12l-2.78,1.66-1.94,1.14v3.49l6.64,3.95h18.63l1.72-1.03c.07-.04.15-.08.21-.12l2.78-1.66,1.94-1.14v-3.49Z"/><path class="cls-6" d="m649.26,739.88v15.74c0,.89-.86,2.13-1.93,2.76l-8.93,5.31s-.01,0-.02.01c-1.06.62-3.14,1.13-4.64,1.13h-26.51c-1.49,0-3.57-.51-4.64-1.13,0,0-.01,0-.02-.01l-8.93-5.31c-1.06-.63-1.93-1.87-1.93-2.76v-15.74c0-.89,1.23-1.62,2.73-1.62h10.53c1.5,0,2.73.73,2.73,1.62v13.41l6.64,3.95h12.27l1.93-1.14,2.79-1.66,1.93-1.14v-13.41c0-.89,1.23-1.62,2.73-1.62h10.53c1.5,0,2.73.73,2.73,1.62Z"/><path class="cls-6" d="m710.44,744.83c.97.66,1.73,1.8,1.73,2.64v8.15c0,.89-.86,2.13-1.93,2.76l-8.93,5.31c-.06.04-.14.08-.21.12-1.11.58-3.04,1.03-4.45,1.03h-39.29c-1.5,0-2.73-.73-2.73-1.62v-23.33c0-.89,1.23-1.62,2.73-1.62h39.29c1.41,0,3.34.45,4.45,1.03.07.04.15.08.21.12l8.93,5.3c.06.04.14.08.2.12h0Zm-14.25,8.46v-3.49l-1.73-1.02c-.06-.04-.14-.09-.2-.12l-2.79-1.66c-.06-.04-.14-.08-.21-.12l-1.72-1.03h-18.92v11.39h18.92l1.93-1.14,2.79-1.66,1.93-1.14h0Z"/><path class="cls-6" d="m528.43,689.78v8.15c0,.89-.87,2.13-1.94,2.76l-8.92,5.3c-.06.04-.14.08-.21.12-1.11.58-3.04,1.03-4.45,1.03h-32.87c-1.5,0-3.59-.51-4.65-1.14l-8.92-5.3c-1.06-.63-1.94-1.87-1.94-2.76v-8.15c0-.89.87-2.13,1.94-2.76l8.92-5.3c.06-.04.14-.08.21-.12,1.11-.58,3.04-1.03,4.45-1.03h32.87c1.5,0,3.59.51,4.65,1.14l8.92,5.3c1.06.63,1.94,1.87,1.94,2.76Zm-15.98,2.33l-6.65-3.95h-18.63l-1.72,1.03c-.07.04-.15.08-.21.12l-2.78,1.66-1.94,1.14v3.49l6.64,3.95h18.63l1.72-1.03c.07-.04.15-.08.21-.12l2.78-1.66,1.94-1.14v-3.49Z"/><path class="cls-6" d="m589.52,682.19v6.25c0,.84-.75,1.98-1.73,2.64-.06.04-.14.09-.2.12l-8.92,5.3c-.06.04-.14.08-.21.12-1.12.58-3.04,1.03-4.45,1.03h-25.81v7.87c0,.89-1.23,1.62-2.73,1.62h-10.53c-1.5,0-2.73-.73-2.73-1.62v-23.33c0-.89,1.23-1.62,2.73-1.62h51.84c1.5,0,2.73.73,2.73,1.62Zm-20.91,6.85l1.48-.87h-21.89v1.89h18.69l1.43-.85c.06-.03.12-.06.17-.1,0,0,.03-.02.03-.02l.09-.05h0Z"/><path class="cls-6" d="m609.31,688.15v1.89h35.62c1.5,0,2.73.73,2.73,1.62v4.36c0,.89-1.23,1.62-2.73,1.62h-35.62v1.89h35.62c1.5,0,2.73.73,2.73,1.62v4.36c0,.89-1.23,1.62-2.73,1.62h-48.87c-1.5,0-2.73-.73-2.73-1.62v-23.33c0-.89,1.23-1.62,2.73-1.62h48.87c1.5,0,2.73.73,2.73,1.62v4.35c0,.89-1.23,1.62-2.73,1.62h-35.62Z"/><path class="cls-6" d="m709.44,680.57c1.5,0,2.73.73,2.73,1.62v23.33c0,.89-1.23,1.62-2.73,1.62h-13.84c-1.5,0-3.59-.51-4.65-1.14l-21.58-12.82c-.05-.03-.1-.06-.15-.09l-1.78-1.06v13.49c0,.89-1.23,1.62-2.73,1.62h-10.53c-1.5,0-2.73-.73-2.73-1.62v-23.33c0-.89,1.23-1.62,2.73-1.62h13.85c1.41,0,3.34.45,4.45,1.03.07.04.15.08.21.12l21.57,12.82,1.93,1.14v-13.49c0-.89,1.23-1.62,2.73-1.62h10.53Z"/><path class="cls-6" d="m532.06,767.1c1.5,0,2.73.73,2.73,1.62v23.33c0,.89-1.23,1.62-2.73,1.62h-10.53c-1.5,0-2.73-.73-2.73-1.62v-13.15l-1.77,1.06c-.05.03-.1.05-.15.09l-15.32,9.1h0c-1.06.63-2.78.63-3.85,0l-15.33-9.1c-.05-.03-.1-.06-.15-.09l-1.77-1.06v13.15c0,.89-1.23,1.62-2.73,1.62h-10.53c-1.5,0-2.73-.73-2.73-1.62v-23.33c0-.89,1.23-1.62,2.73-1.62h13.28c1.41,0,3.34.45,4.45,1.03.07.04.15.08.21.12l12.57,7.47,1.93,1.14,1.93-1.14,12.57-7.47c.06-.04.14-.08.21-.12,1.11-.58,3.04-1.03,4.45-1.03h13.27Z"/><path class="cls-6" d="m554.55,768.71v23.33c0,.89-1.23,1.62-2.73,1.62h-10.53c-1.5,0-2.73-.73-2.73-1.62v-23.33c0-.89,1.23-1.62,2.73-1.62h10.53c1.5,0,2.73.73,2.73,1.62Z"/><path class="cls-6" d="m576.05,777.61l-1.73,1.02v3.49l6.64,3.95h32.17c1.5,0,2.73.73,2.73,1.62v4.36c0,.89-1.23,1.62-2.73,1.62h-39.28c-1.5,0-3.59-.51-4.65-1.14l-8.94-5.31c-1.06-.63-1.93-1.87-1.93-2.76v-8.15c0-.84.75-1.98,1.73-2.64.06-.04.14-.09.2-.12l8.94-5.3c.06-.04.14-.08.21-.12,1.11-.58,3.04-1.03,4.45-1.03h39.28c1.5,0,2.73.73,2.73,1.62v4.35c0,.89-1.23,1.62-2.73,1.62h-32.17l-1.72,1.03c-.07.04-.15.08-.21.12l-2.79,1.66c-.06.04-.14.08-.2.12h0Z"/><path class="cls-6" d="m640.71,775.63s-.03.02-.03.02l-1.57.93h35.37c1.5,0,2.73.73,2.73,1.62v6.25c0,.89-.86,2.13-1.93,2.76l-8.93,5.31s-.01,0-.02.01c-1.06.62-3.15,1.13-4.64,1.13h-39.29c-1.5,0-2.73-.73-2.73-1.62v-4.36c0-.89,1.23-1.62,2.73-1.62h32.17l1.6-.95,1.6-.94h-35.37c-1.5,0-2.73-.73-2.73-1.62v-6.25c0-.84.75-1.98,1.73-2.64.07-.04.14-.09.2-.12l8.93-5.3c.06-.04.14-.08.21-.12,1.11-.58,3.04-1.03,4.44-1.03h39.29c1.5,0,2.73.73,2.73,1.62v4.35c0,.89-1.23,1.62-2.73,1.62h-32.17l-1.55.92s-.03.02-.05.03h0Z"/><path class="cls-6" d="m521.99,711.08v23.33c0,.89-1.23,1.62-2.73,1.62h-10.53c-1.5,0-2.73-.73-2.73-1.62v-7.87h-25.57v7.87c0,.89-1.23,1.62-2.73,1.62h-10.52c-1.5,0-2.73-.73-2.73-1.62v-23.33c0-.89,1.23-1.62,2.73-1.62h10.52c1.5,0,2.73.73,2.73,1.62v7.87h25.57v-7.87c0-.89,1.23-1.62,2.73-1.62h10.53c1.5,0,2.73.73,2.73,1.62Z"/><path class="cls-6" d="m541.74,717.05v1.89h35.62c1.5,0,2.73.73,2.73,1.62v4.36c0,.89-1.23,1.62-2.73,1.62h-35.62v1.89h35.62c1.5,0,2.73.73,2.73,1.62v4.36c0,.89-1.23,1.62-2.73,1.62h-48.87c-1.5,0-2.73-.73-2.73-1.62v-23.33c0-.89,1.23-1.62,2.73-1.62h48.87c1.5,0,2.73.73,2.73,1.62v4.35c0,.89-1.23,1.62-2.73,1.62h-35.62Z"/><path class="cls-6" d="m641.41,711.33v23.09c0,.89-1.23,1.62-2.73,1.62h-10.53c-1.5,0-2.73-.73-2.73-1.62v-4.08h-25.56v4.08c0,.89-1.23,1.62-2.73,1.62h-10.53c-1.5,0-2.73-.73-2.73-1.62v-15.75c0-.83.75-1.98,1.73-2.63.07-.05.14-.09.2-.12l8.93-5.3c.06-.04.14-.08.21-.12,1.11-.58,3.04-1.03,4.44-1.03h38.88c1.73,0,3.13.83,3.13,1.86Zm-15.98,5.72h-18.92l-1.72,1.03c-.07.04-.15.08-.21.12l-4.72,2.8v1.75h25.56v-5.7Z"/><path class="cls-6" d="m754.93,709.47c1.5,0,2.73.73,2.73,1.62v4.35c0,.89-1.23,1.62-2.73,1.62h-16.44v17.36c0,.89-1.23,1.62-2.73,1.62h-10.53c-1.5,0-2.73-.73-2.73-1.62v-17.36h-16.44c-1.5,0-2.73-.73-2.73-1.62v-4.35c0-.89,1.23-1.62,2.73-1.62h48.87Z"/><path class="cls-6" d="m780.18,718s-.03.02-.03.02l-1.57.93h35.37c1.5,0,2.73.73,2.73,1.62v6.25c0,.89-.86,2.13-1.93,2.76l-8.93,5.31s-.01,0-.02.01c-1.06.62-3.15,1.13-4.64,1.13h-39.29c-1.5,0-2.73-.73-2.73-1.62v-4.36c0-.89,1.23-1.62,2.73-1.62h32.17l1.6-.95,1.6-.94h-35.37c-1.5,0-2.73-.73-2.73-1.62v-6.25c0-.84.75-1.98,1.73-2.64.07-.04.14-.09.2-.12l8.93-5.3c.06-.04.14-.08.21-.12,1.11-.58,3.04-1.03,4.44-1.03h39.29c1.5,0,2.73.73,2.73,1.62v4.35c0,.89-1.23,1.62-2.73,1.62h-32.17l-1.55.92s-.03.02-.05.03h0Z"/><path class="cls-6" d="m702.87,734.98h0s-.09-.06-.15-.09l-14.04-8.34h9.93c1.5,0,2.73-.73,2.73-1.62v-6.25c0-.84-.75-1.98-1.73-2.64-.06-.04-.14-.09-.2-.12l-9.13-5.42c-1.12-.58-3.05-1.03-4.45-1.03h-39.29c-1.5,0-2.73.73-2.73,1.62v23.33c0,.89,1.23,1.62,2.73,1.62h10.53c1.5,0,2.73-.73,2.73-1.62v-17.36h6.26v9.49l14.04,8.34c1.06.63,3.15,1.14,4.65,1.14h17.17c1.43,0,1.83-.46.95-1.05Z"/></svg>